0
SECTION
2
HEADER
9
$ACADVER
1
AC1015
9
$INSUNITS
70
4
9
$MEASUREMENT
70
1
0
ENDSEC
0
SECTION
2
TABLES
0
TABLE
2
LAYER
70
6
0
LAYER
2
CUT
70
0
62
1
6
CONTINUOUS
0
LAYER
2
ENGRAVE
70
0
62
5
6
CONTINUOUS
0
LAYER
2
OUTLINE
70
0
62
7
6
CONTINUOUS
0
LAYER
2
DIMENSION
70
0
62
8
6
CONTINUOUS
0
LAYER
2
CENTERLINE
70
0
62
3
6
DASHED
0
ENDTABLE
0
ENDSEC
0
SECTION
2
ENTITIES
0
LINE
8
OUTLINE
10
0.0000
20
0.0000
30
0.0
11
103.0000
21
0.0000
31
0.0
0
LINE
8
OUTLINE
10
103.0000
20
0.0000
30
0.0
11
103.0000
21
53.0000
31
0.0
0
LINE
8
OUTLINE
10
103.0000
20
53.0000
30
0.0
11
0.0000
21
53.0000
31
0.0
0
LINE
8
OUTLINE
10
0.0000
20
53.0000
30
0.0
11
0.0000
21
0.0000
31
0.0
0
CIRCLE
8
CUT
10
5.0000
20
5.0000
30
0.0
40
1.5000
0
CIRCLE
8
CUT
10
98.0000
20
5.0000
30
0.0
40
1.5000
0
CIRCLE
8
CUT
10
5.0000
20
48.0000
30
0.0
40
1.5000
0
CIRCLE
8
CUT
10
98.0000
20
48.0000
30
0.0
40
1.5000
0
CIRCLE
8
CUT
10
18.5000
20
36.5000
30
0.0
40
4.0000
0
LINE
8
CENTERLINE
10
18.5000
20
28.5000
30
0.0
11
18.5000
21
44.5000
31
0.0
0
LINE
8
CENTERLINE
10
10.5000
20
36.5000
30
0.0
11
26.5000
21
36.5000
31
0.0
0
CIRCLE
8
CUT
10
18.5000
20
16.5000
30
0.0
40
4.0000
0
LINE
8
CENTERLINE
10
18.5000
20
8.5000
30
0.0
11
18.5000
21
24.5000
31
0.0
0
LINE
8
CENTERLINE
10
10.5000
20
16.5000
30
0.0
11
26.5000
21
16.5000
31
0.0
0
CIRCLE
8
CUT
10
40.5000
20
36.5000
30
0.0
40
4.0000
0
LINE
8
CENTERLINE
10
40.5000
20
28.5000
30
0.0
11
40.5000
21
44.5000
31
0.0
0
LINE
8
CENTERLINE
10
32.5000
20
36.5000
30
0.0
11
48.5000
21
36.5000
31
0.0
0
CIRCLE
8
CUT
10
40.5000
20
16.5000
30
0.0
40
4.0000
0
LINE
8
CENTERLINE
10
40.5000
20
8.5000
30
0.0
11
40.5000
21
24.5000
31
0.0
0
LINE
8
CENTERLINE
10
32.5000
20
16.5000
30
0.0
11
48.5000
21
16.5000
31
0.0
0
CIRCLE
8
CUT
10
62.5000
20
36.5000
30
0.0
40
4.0000
0
LINE
8
CENTERLINE
10
62.5000
20
28.5000
30
0.0
11
62.5000
21
44.5000
31
0.0
0
LINE
8
CENTERLINE
10
54.5000
20
36.5000
30
0.0
11
70.5000
21
36.5000
31
0.0
0
CIRCLE
8
CUT
10
62.5000
20
16.5000
30
0.0
40
4.0000
0
LINE
8
CENTERLINE
10
62.5000
20
8.5000
30
0.0
11
62.5000
21
24.5000
31
0.0
0
LINE
8
CENTERLINE
10
54.5000
20
16.5000
30
0.0
11
70.5000
21
16.5000
31
0.0
0
CIRCLE
8
CUT
10
84.5000
20
36.5000
30
0.0
40
4.0000
0
LINE
8
CENTERLINE
10
84.5000
20
28.5000
30
0.0
11
84.5000
21
44.5000
31
0.0
0
LINE
8
CENTERLINE
10
76.5000
20
36.5000
30
0.0
11
92.5000
21
36.5000
31
0.0
0
CIRCLE
8
CUT
10
84.5000
20
16.5000
30
0.0
40
4.0000
0
LINE
8
CENTERLINE
10
84.5000
20
8.5000
30
0.0
11
84.5000
21
24.5000
31
0.0
0
LINE
8
CENTERLINE
10
76.5000
20
16.5000
30
0.0
11
92.5000
21
16.5000
31
0.0
0
CIRCLE
8
CUT
10
94.0000
20
26.5000
30
0.0
40
2.5000
0
LINE
8
CENTERLINE
10
94.0000
20
20.5000
30
0.0
11
94.0000
21
32.5000
31
0.0
0
LINE
8
CENTERLINE
10
88.0000
20
26.5000
30
0.0
11
100.0000
21
26.5000
31
0.0
0
TEXT
8
ENGRAVE
10
18.5000
20
45.5000
30
0.0
40
2.5000
1
CH1
72
1
11
18.5000
21
45.5000
31
0.0
0
TEXT
8
ENGRAVE
10
12.0000
20
35.8000
30
0.0
40
2.0000
1
+
72
1
11
12.0000
21
35.8000
31
0.0
0
TEXT
8
ENGRAVE
10
12.0000
20
15.8000
30
0.0
40
2.0000
1
-
72
1
11
12.0000
21
15.8000
31
0.0
0
TEXT
8
ENGRAVE
10
40.5000
20
45.5000
30
0.0
40
2.5000
1
CH2
72
1
11
40.5000
21
45.5000
31
0.0
0
TEXT
8
ENGRAVE
10
34.0000
20
35.8000
30
0.0
40
2.0000
1
+
72
1
11
34.0000
21
35.8000
31
0.0
0
TEXT
8
ENGRAVE
10
34.0000
20
15.8000
30
0.0
40
2.0000
1
-
72
1
11
34.0000
21
15.8000
31
0.0
0
TEXT
8
ENGRAVE
10
62.5000
20
45.5000
30
0.0
40
2.5000
1
CH3
72
1
11
62.5000
21
45.5000
31
0.0
0
TEXT
8
ENGRAVE
10
56.0000
20
35.8000
30
0.0
40
2.0000
1
+
72
1
11
56.0000
21
35.8000
31
0.0
0
TEXT
8
ENGRAVE
10
56.0000
20
15.8000
30
0.0
40
2.0000
1
-
72
1
11
56.0000
21
15.8000
31
0.0
0
TEXT
8
ENGRAVE
10
84.5000
20
45.5000
30
0.0
40
2.5000
1
CH4
72
1
11
84.5000
21
45.5000
31
0.0
0
TEXT
8
ENGRAVE
10
78.0000
20
35.8000
30
0.0
40
2.0000
1
+
72
1
11
78.0000
21
35.8000
31
0.0
0
TEXT
8
ENGRAVE
10
78.0000
20
15.8000
30
0.0
40
2.0000
1
-
72
1
11
78.0000
21
15.8000
31
0.0
0
TEXT
8
ENGRAVE
10
94.0000
20
31.5000
30
0.0
40
1.8000
1
STATUS
72
1
11
94.0000
21
31.5000
31
0.0
0
TEXT
8
ENGRAVE
10
51.5000
20
4.0000
30
0.0
40
2.5000
1
IGNITER CONTROLLER
72
1
11
51.5000
21
4.0000
31
0.0
0
LINE
8
DIMENSION
10
18.5000
20
11.0000
30
0.0
11
40.5000
21
11.0000
31
0.0
0
LINE
8
DIMENSION
10
18.5000
20
12.5000
30
0.0
11
18.5000
21
9.5000
31
0.0
0
LINE
8
DIMENSION
10
40.5000
20
12.5000
30
0.0
11
40.5000
21
9.5000
31
0.0
0
TEXT
8
DIMENSION
10
29.5000
20
8.0000
30
0.0
40
1.5000
1
22mm
72
1
11
29.5000
21
8.0000
31
0.0
0
LINE
8
DIMENSION
10
0.0000
20
-6.0000
30
0.0
11
103.0000
21
-6.0000
31
0.0
0
LINE
8
DIMENSION
10
0.0000
20
-4.0000
30
0.0
11
0.0000
21
-8.0000
31
0.0
0
LINE
8
DIMENSION
10
103.0000
20
-4.0000
30
0.0
11
103.0000
21
-8.0000
31
0.0
0
TEXT
8
DIMENSION
10
51.5000
20
-10.0000
30
0.0
40
1.8000
1
103mm
72
1
11
51.5000
21
-10.0000
31
0.0
0
LINE
8
DIMENSION
10
107.0000
20
0.0000
30
0.0
11
107.0000
21
53.0000
31
0.0
0
LINE
8
DIMENSION
10
105.0000
20
0.0000
30
0.0
11
109.0000
21
0.0000
31
0.0
0
LINE
8
DIMENSION
10
105.0000
20
53.0000
30
0.0
11
109.0000
21
53.0000
31
0.0
0
TEXT
8
DIMENSION
10
113.0000
20
26.5000
30
0.0
40
1.8000
1
53mm
72
1
11
113.0000
21
26.5000
31
0.0
0
ENDSEC
0
EOF
