0
SECTION
2
HEADER
9
$ACADVER
1
AC1015
9
$INSUNITS
70
4
9
$MEASUREMENT
70
1
0
ENDSEC
0
SECTION
2
TABLES
0
TABLE
2
LAYER
70
6
0
LAYER
2
CUT
70
0
62
1
6
CONTINUOUS
0
LAYER
2
ENGRAVE
70
0
62
5
6
CONTINUOUS
0
LAYER
2
OUTLINE
70
0
62
7
6
CONTINUOUS
0
LAYER
2
DIMENSION
70
0
62
8
6
CONTINUOUS
0
LAYER
2
CENTERLINE
70
0
62
3
6
DASHED
0
ENDTABLE
0
ENDSEC
0
SECTION
2
ENTITIES
0
LINE
8
OUTLINE
10
0.0000
20
0.0000
30
0.0
11
103.0000
21
0.0000
31
0.0
0
LINE
8
OUTLINE
10
103.0000
20
0.0000
30
0.0
11
103.0000
21
53.0000
31
0.0
0
LINE
8
OUTLINE
10
103.0000
20
53.0000
30
0.0
11
0.0000
21
53.0000
31
0.0
0
LINE
8
OUTLINE
10
0.0000
20
53.0000
30
0.0
11
0.0000
21
0.0000
31
0.0
0
CIRCLE
8
CUT
10
5.0000
20
5.0000
30
0.0
40
1.5000
0
CIRCLE
8
CUT
10
98.0000
20
5.0000
30
0.0
40
1.5000
0
CIRCLE
8
CUT
10
5.0000
20
48.0000
30
0.0
40
1.5000
0
CIRCLE
8
CUT
10
98.0000
20
48.0000
30
0.0
40
1.5000
0
LINE
8
CUT
10
13.5000
20
20.0000
30
0.0
11
30.5000
21
20.0000
31
0.0
0
LINE
8
CUT
10
13.5000
20
33.0000
30
0.0
11
30.5000
21
33.0000
31
0.0
0
LINE
8
CUT
10
12.0000
20
21.5000
30
0.0
11
12.0000
21
31.5000
31
0.0
0
LINE
8
CUT
10
32.0000
20
21.5000
30
0.0
11
32.0000
21
31.5000
31
0.0
0
ARC
8
CUT
10
13.5000
20
21.5000
30
0.0
40
1.5000
50
180.0000
51
270.0000
0
ARC
8
CUT
10
30.5000
20
21.5000
30
0.0
40
1.5000
50
270.0000
51
360.0000
0
ARC
8
CUT
10
30.5000
20
31.5000
30
0.0
40
1.5000
50
0.0000
51
90.0000
0
ARC
8
CUT
10
13.5000
20
31.5000
30
0.0
40
1.5000
50
90.0000
51
180.0000
0
LINE
8
CENTERLINE
10
22.0000
20
16.5000
30
0.0
11
22.0000
21
36.5000
31
0.0
0
LINE
8
CENTERLINE
10
8.0000
20
26.5000
30
0.0
11
36.0000
21
26.5000
31
0.0
0
TEXT
8
ENGRAVE
10
22.0000
20
36.5000
30
0.0
40
2.0000
1
FUSE
72
1
11
22.0000
21
36.5000
31
0.0
0
TEXT
8
DIMENSION
10
22.0000
20
15.0000
30
0.0
40
1.5000
1
20x13mm
72
1
11
22.0000
21
15.0000
31
0.0
0
CIRCLE
8
CUT
10
52.0000
20
26.5000
30
0.0
40
6.0000
0
LINE
8
CENTERLINE
10
52.0000
20
16.5000
30
0.0
11
52.0000
21
36.5000
31
0.0
0
LINE
8
CENTERLINE
10
42.0000
20
26.5000
30
0.0
11
62.0000
21
26.5000
31
0.0
0
TEXT
8
ENGRAVE
10
52.0000
20
36.0000
30
0.0
40
2.0000
1
CHARGE
72
1
11
52.0000
21
36.0000
31
0.0
0
TEXT
8
DIMENSION
10
52.0000
20
15.5000
30
0.0
40
1.5000
1
12mm dia.
72
1
11
52.0000
21
15.5000
31
0.0
0
LINE
8
CUT
10
83.5000
20
24.7500
30
0.0
11
90.5000
21
24.7500
31
0.0
0
LINE
8
CUT
10
83.5000
20
28.2500
30
0.0
11
90.5000
21
28.2500
31
0.0
0
LINE
8
CUT
10
82.5000
20
25.7500
30
0.0
11
82.5000
21
27.2500
31
0.0
0
LINE
8
CUT
10
91.5000
20
25.7500
30
0.0
11
91.5000
21
27.2500
31
0.0
0
ARC
8
CUT
10
83.5000
20
25.7500
30
0.0
40
1.0000
50
180.0000
51
270.0000
0
ARC
8
CUT
10
90.5000
20
25.7500
30
0.0
40
1.0000
50
270.0000
51
360.0000
0
ARC
8
CUT
10
90.5000
20
27.2500
30
0.0
40
1.0000
50
0.0000
51
90.0000
0
ARC
8
CUT
10
83.5000
20
27.2500
30
0.0
40
1.0000
50
90.0000
51
180.0000
0
LINE
8
CENTERLINE
10
87.0000
20
18.5000
30
0.0
11
87.0000
21
34.5000
31
0.0
0
LINE
8
CENTERLINE
10
79.0000
20
26.5000
30
0.0
11
95.0000
21
26.5000
31
0.0
0
TEXT
8
ENGRAVE
10
87.0000
20
31.7500
30
0.0
40
2.0000
1
USB-C
72
1
11
87.0000
21
31.7500
31
0.0
0
TEXT
8
DIMENSION
10
87.0000
20
19.7500
30
0.0
40
1.5000
1
flashing
72
1
11
87.0000
21
19.7500
31
0.0
0
TEXT
8
ENGRAVE
10
51.5000
20
4.0000
30
0.0
40
2.5000
1
IGNITER CONTROLLER
72
1
11
51.5000
21
4.0000
31
0.0
0
LINE
8
DIMENSION
10
0.0000
20
-6.0000
30
0.0
11
103.0000
21
-6.0000
31
0.0
0
LINE
8
DIMENSION
10
0.0000
20
-4.0000
30
0.0
11
0.0000
21
-8.0000
31
0.0
0
LINE
8
DIMENSION
10
103.0000
20
-4.0000
30
0.0
11
103.0000
21
-8.0000
31
0.0
0
TEXT
8
DIMENSION
10
51.5000
20
-10.0000
30
0.0
40
1.8000
1
103mm
72
1
11
51.5000
21
-10.0000
31
0.0
0
LINE
8
DIMENSION
10
107.0000
20
0.0000
30
0.0
11
107.0000
21
53.0000
31
0.0
0
LINE
8
DIMENSION
10
105.0000
20
0.0000
30
0.0
11
109.0000
21
0.0000
31
0.0
0
LINE
8
DIMENSION
10
105.0000
20
53.0000
30
0.0
11
109.0000
21
53.0000
31
0.0
0
TEXT
8
DIMENSION
10
113.0000
20
26.5000
30
0.0
40
1.8000
1
53mm
72
1
11
113.0000
21
26.5000
31
0.0
0
ENDSEC
0
EOF
