  0
SECTION
  2
HEADER
  9
$ACADVER
  1
AC1015
  9
$ACADMAINTVER
 70
6
  9
$DWGCODEPAGE
  3
ANSI_1252
  9
$INSBASE
 10
0.0
 20
0.0
 30
0.0
  9
$EXTMIN
 10
0.0
 20
0.0
 30
0.0
  9
$EXTMAX
 10
200.0
 20
100.0
 30
0.0
  9
$LIMMIN
 10
0.0
 20
0.0
  9
$LIMMAX
 10
420.0
 20
297.0
  9
$ORTHOMODE
 70
0
  9
$REGENMODE
 70
1
  9
$FILLMODE
 70
1
  9
$QTEXTMODE
 70
0
  9
$MIRRTEXT
 70
0
  9
$LTSCALE
 40
1.0
  9
$ATTMODE
 70
1
  9
$TEXTSIZE
 40
2.5
  9
$TRACEWID
 40
1.0
  9
$TEXTSTYLE
  7
STANDARD
  9
$CLAYER
  8
0
  9
$CELTYPE
  6
BYLAYER
  9
$CECOLOR
 62
256
  9
$CELTSCALE
 40
1.0
  9
$DISPSILH
 70
0
  9
$DIMSCALE
 40
1.0
  9
$DIMASZ
 40
2.5
  9
$DIMEXO
 40
0.625
  9
$DIMDLI
 40
3.75
  9
$DIMRND
 40
0.0
  9
$DIMDLE
 40
0.0
  9
$DIMEXE
 40
1.25
  9
$DIMTP
 40
0.0
  9
$DIMTM
 40
0.0
  9
$DIMTXT
 40
2.5
  9
$DIMCEN
 40
2.5
  9
$DIMTSZ
 40
0.0
  9
$DIMTOL
 70
0
  9
$DIMLIM
 70
0
  9
$DIMTIH
 70
0
  9
$DIMTOH
 70
0
  9
$DIMSE1
 70
0
  9
$DIMSE2
 70
0
  9
$DIMTAD
 70
1
  9
$DIMZIN
 70
8
  9
$DIMBLK
  1

  9
$DIMASO
 70
1
  9
$DIMSHO
 70
1
  9
$DIMPOST
  1

  9
$DIMAPOST
  1

  9
$DIMALT
 70
0
  9
$DIMALTD
 70
4
  9
$DIMALTF
 40
25.4
  9
$DIMLFAC
 40
1.0
  9
$DIMTOFL
 70
0
  9
$DIMTVP
 40
0.0
  9
$DIMTIX
 70
0
  9
$DIMSOXD
 70
0
  9
$DIMSAH
 70
0
  9
$DIMBLK1
  1

  9
$DIMBLK2
  1

  9
$DIMSTYLE
  2
STANDARD
  9
$DIMCLRD
 70
0
  9
$DIMCLRE
 70
0
  9
$DIMCLRT
 70
0
  9
$DIMGAP
 40
0.625
  9
$DIMJUST
 70
0
  9
$DIMSD1
 70
0
  9
$DIMSD2
 70
0
  9
$DIMTOLJ
 70
1
  9
$DIMTZIN
 70
8
  9
$DIMALTZ
 70
0
  9
$DIMALTTZ
 70
0
  9
$DIMUPT
 70
0
  9
$DIMDEC
 70
4
  9
$DIMTDEC
 70
4
  9
$DIMALTU
 70
2
  9
$DIMALTTD
 70
2
  9
$DIMTXSTY
  7
STANDARD
  9
$DIMAUNIT
 70
0
  9
$DIMADEC
 70
0
  9
$DIMALTRND
 40
0.0
  9
$DIMAZIN
 70
0
  9
$DIFRAC
 70
0
  9
$DIMLUNIT
 70
2
  9
$DIMLDRBLK
  1

  9
$DIMLWD
 70
-2
  9
$DIMLWE
 70
-2
  9
$DISPSILH
 70
0
  9
$PLINEGEN
 70
0
  9
$PSLTSCALE
 70
1
  9
$TREEDEPTH
 70
3020
  9
$UNITMODE
 70
0
  9
$VISRETAIN
 70
1
  9
$PLINEWID
 40
0.0
  9
$SPLFRAME
 70
0
  9
$SPLINETYPE
 70
6
  9
$SPLINESEGS
 70
8
  9
$HANDSEED
  5
FFFF
  9
$SURFTAB1
 70
6
  9
$SURFTAB2
 70
6
  9
$SURFTYPE
 70
6
  9
$SURFU
 70
6
  9
$SURFV
 70
6
  9
$UCSBASE
  2

  9
$UCSNAME
  2

  9
$UCSORG
 10
0.0
 20
0.0
 30
0.0
  9
$UCSXDIR
 10
1.0
 20
0.0
 30
0.0
  9
$UCSYDIR
 10
0.0
 20
1.0
 30
0.0
  9
$UCSORTHOREF
  2

  9
$UCSORTHOVIEW
 70
0
  9
$UCSORGTOP
 10
0.0
 20
0.0
 30
0.0
  9
$UCSORGBOTTOM
 10
0.0
 20
0.0
 30
0.0
  9
$UCSORGLEFT
 10
0.0
 20
0.0
 30
0.0
  9
$UCSORGRIGHT
 10
0.0
 20
0.0
 30
0.0
  9
$UCSORGFRONT
 10
0.0
 20
0.0
 30
0.0
  9
$UCSORGBACK
 10
0.0
 20
0.0
 30
0.0
  9
$PUCSBASE
  2

  9
$PUCSNAME
  2

  9
$PUCSORG
 10
0.0
 20
0.0
 30
0.0
  9
$PUCSXDIR
 10
1.0
 20
0.0
 30
0.0
  9
$PUCSYDIR
 10
0.0
 20
1.0
 30
0.0
  9
$PUCSORTHOREF
  2

  9
$PUCSORTHOVIEW
 70
0
  9
$PUCSORGTOP
 10
0.0
 20
0.0
 30
0.0
  9
$PUCSORGTOP
 10
0.0
 20
0.0
 30
0.0
  9
$PUCSORGLEFT
 10
0.0
 20
0.0
 30
0.0
  9
$PUCSORGRIGHT
 10
0.0
 20
0.0
 30
0.0
  9
$PUCSORGFRONT
 10
0.0
 20
0.0
 30
0.0
  9
$PUCSORGBACK
 10
0.0
 20
0.0
 30
0.0
  9
$INSUNITS
 70
4
  9
$MEASUREMENT
 70
1
  9
$CELWEIGHT
370
-1
  9
$ENDCAPS
280
0
  9
$JOINSTYLE
280
0
  9
$LWDISPLAY
290
0
  9
$INSUNITS
 70
4
  9
$HYPERLINKBASE
  1

  9
$STYLESHEET
  1

  9
$XEDIT
290
1
  9
$CEPSNTYPE
380
0
  9
$PSTYLEMODE
290
1
  9
$FINGERPRINTGUID
  2
{00000000-0000-0000-0000-000000000000}
  9
$VERSIONGUID
  2
{00000000-0000-0000-0000-000000000000}
  9
$EXTNAMES
290
1
  9
$PSVPSCALE
 40
0.0
  9
$OLESTARTUP
290
0
  0
ENDSEC
  0
SECTION
  2
CLASSES
  0
ENDSEC
  0
SECTION
  2
TABLES
  0
TABLE
  2
VPORT
  5
8
100
AcDbSymbolTable
 70
1
  0
VPORT
  5
9
100
AcDbSymbolTableRecord
100
AcDbViewportTableRecord
  2
*ACTIVE
 70
0
 10
0.0
 20
0.0
 12
51.5
 22
26.5
 13
0.0
 23
0.0
 14
10.0
 24
10.0
 15
10.0
 25
10.0
 16
0.0
 26
0.0
 36
1.0
 17
0.0
 27
0.0
 37
0.0
 40
80.0
 41
1.8899
 42
50.0
 43
0.0
 44
0.0
 45
0.0
 50
0.0
 51
0.0
 71
0
 72
100
 73
1
 74
3
 75
0
 76
0
 77
0
 78
0
281
0
282
1
283
0
284
0
285
0
286
0
287
3
288
0
290
0
291
1
292
0
293
1
294
0
295
0
296
0
 0
ENDTABLE
  0
TABLE
  2
LTYPE
  5
A
100
AcDbSymbolTable
 70
4
  0
LTYPE
  5
B
100
AcDbSymbolTableRecord
100
AcDbLinetypeTableRecord
  2
BYBLOCK
 70
0
  3

 72
65
 73
0
 40
0.0
  0
LTYPE
  5
C
100
AcDbSymbolTableRecord
100
AcDbLinetypeTableRecord
  2
BYLAYER
 70
0
  3

 72
65
 73
0
 40
0.0
  0
LTYPE
  5
D
100
AcDbSymbolTableRecord
100
AcDbLinetypeTableRecord
  2
CONTINUOUS
 70
0
  3
Solid line
 72
65
 73
0
 40
0.0
  0
LTYPE
  5
E
100
AcDbSymbolTableRecord
100
AcDbLinetypeTableRecord
  2
DASHED
 70
0
  3
Dashed _ _ _ _ _ _ _ _ _ _ _ _ _ _ _ _
 72
65
 73
2
 40
0.375
 49
0.25
 74
0
 49
-0.125
 74
0
  0
ENDTABLE
  0
TABLE
  2
LAYER
  5
2
100
AcDbSymbolTable
 70
6
  0
LAYER
  5
10
100
AcDbSymbolTableRecord
100
AcDbLayerTableRecord
  2
0
 70
0
 62
7
  6
CONTINUOUS
370
-3
390
F
  0
LAYER
  5
CU01
100
AcDbSymbolTableRecord
100
AcDbLayerTableRecord
  2
CUT
 70
0
 62
1
  6
CONTINUOUS
  0
LAYER
  5
EN01
100
AcDbSymbolTableRecord
100
AcDbLayerTableRecord
  2
ENGRAVE
 70
0
 62
5
  6
CONTINUOUS
  0
LAYER
  5
OU01
100
AcDbSymbolTableRecord
100
AcDbLayerTableRecord
  2
OUTLINE
 70
0
 62
7
  6
CONTINUOUS
  0
LAYER
  5
DI01
100
AcDbSymbolTableRecord
100
AcDbLayerTableRecord
  2
DIMENSION
 70
0
 62
8
  6
CONTINUOUS
  0
LAYER
  5
CE01
100
AcDbSymbolTableRecord
100
AcDbLayerTableRecord
  2
CENTERLINE
 70
0
 62
3
  6
DASHED
  0
ENDTABLE
  0
TABLE
  2
STYLE
  5
3
100
AcDbSymbolTable
 70
1
  0
STYLE
  5
11
100
AcDbSymbolTableRecord
100
AcDbTextStyleTableRecord
  2
STANDARD
 70
0
 40
0.0
 41
1.0
 50
0.0
 71
0
 42
2.5
  4
txt
  1

  0
ENDTABLE
  0
TABLE
  2
VIEW
  5
6
100
AcDbSymbolTable
 70
0
  0
ENDTABLE
  0
TABLE
  2
UCS
  5
7
100
AcDbSymbolTable
 70
0
  0
ENDTABLE
  0
TABLE
  2
APPID
  5
9A
100
AcDbSymbolTable
 70
1
  0
APPID
  5
9B
100
AcDbSymbolTableRecord
100
AcDbRegAppTableRecord
  2
ACAD
 70
0
  0
ENDTABLE
  0
TABLE
  2
DIMSTYLE
  5
9C
100
AcDbSymbolTable
 70
1
  0
DIMSTYLE
  5
9D
100
AcDbSymbolTableRecord
100
AcDbDimStyleTableRecord
  2
STANDARD
 70
0
  3

  4

  5

  6

  7

 40
1.0
 41
2.5
 42
0.625
 43
3.75
 44
1.25
 45
0.0
 46
0.0
 47
0.0
 48
0.0
140
2.5
141
2.5
142
0.0
143
25.4
144
1.0
145
0.0
146
1.0
147
0.625
 71
0
 72
0
 73
0
 74
0
 75
0
 76
0
 77
0
 78
8
170
0
171
4
172
0
173
0
174
0
175
0
176
0
177
0
178
0
270
2
271
4
272
4
273
2
274
2
340
11
275
0
276
0
277
2
278
46
279
0
280
0
281
0
282
0
283
0
284
8
285
0
286
0
287
3
288
0
  0
ENDTABLE
  0
TABLE
  2
BLOCK_RECORD
  5
1
100
AcDbSymbolTable
 70
2
  0
BLOCK_RECORD
  5
1F
100
AcDbSymbolTableRecord
100
AcDbBlockTableRecord
  2
*MODEL_SPACE
  0
BLOCK_RECORD
  5
1E
100
AcDbSymbolTableRecord
100
AcDbBlockTableRecord
  2
*PAPER_SPACE
  0
ENDTABLE
  0
ENDSEC
  0
SECTION
  2
BLOCKS
  0
BLOCK
  5
20
100
AcDbEntity
  8
0
100
AcDbBlockBegin
  2
*MODEL_SPACE
 70
0
 10
0.0
 20
0.0
 30
0.0
  3
*MODEL_SPACE
  1

  0
ENDBLK
  5
21
100
AcDbEntity
  8
0
100
AcDbBlockEnd
  0
BLOCK
  5
1C
100
AcDbEntity
  8
0
100
AcDbBlockBegin
  2
*PAPER_SPACE
 70
0
 10
0.0
 20
0.0
 30
0.0
  3
*PAPER_SPACE
  1

  0
ENDBLK
  5
1D
100
AcDbEntity
  8
0
100
AcDbBlockEnd
  0
ENDSEC
  0
SECTION
  2
ENTITIES
  0
LINE
  5
80
100
AcDbEntity
  8
OUTLINE
100
AcDbLine
 10
0.0000
 20
0.0000
 30
0.0
 11
103.0000
 21
0.0000
 31
0.0
  0
LINE
  5
81
100
AcDbEntity
  8
OUTLINE
100
AcDbLine
 10
103.0000
 20
0.0000
 30
0.0
 11
103.0000
 21
53.0000
 31
0.0
  0
LINE
  5
82
100
AcDbEntity
  8
OUTLINE
100
AcDbLine
 10
103.0000
 20
53.0000
 30
0.0
 11
0.0000
 21
53.0000
 31
0.0
  0
LINE
  5
83
100
AcDbEntity
  8
OUTLINE
100
AcDbLine
 10
0.0000
 20
53.0000
 30
0.0
 11
0.0000
 21
0.0000
 31
0.0
  0
CIRCLE
  5
84
100
AcDbEntity
  8
CUT
100
AcDbCircle
 10
5.0000
 20
5.0000
 30
0.0
 40
1.5000
  0
CIRCLE
  5
85
100
AcDbEntity
  8
CUT
100
AcDbCircle
 10
98.0000
 20
5.0000
 30
0.0
 40
1.5000
  0
CIRCLE
  5
86
100
AcDbEntity
  8
CUT
100
AcDbCircle
 10
5.0000
 20
48.0000
 30
0.0
 40
1.5000
  0
CIRCLE
  5
87
100
AcDbEntity
  8
CUT
100
AcDbCircle
 10
98.0000
 20
48.0000
 30
0.0
 40
1.5000
  0
LINE
  5
88
100
AcDbEntity
  8
CUT
100
AcDbLine
 10
13.5000
 20
20.0000
 30
0.0
 11
30.5000
 21
20.0000
 31
0.0
  0
LINE
  5
89
100
AcDbEntity
  8
CUT
100
AcDbLine
 10
13.5000
 20
33.0000
 30
0.0
 11
30.5000
 21
33.0000
 31
0.0
  0
LINE
  5
8A
100
AcDbEntity
  8
CUT
100
AcDbLine
 10
12.0000
 20
21.5000
 30
0.0
 11
12.0000
 21
31.5000
 31
0.0
  0
LINE
  5
8B
100
AcDbEntity
  8
CUT
100
AcDbLine
 10
32.0000
 20
21.5000
 30
0.0
 11
32.0000
 21
31.5000
 31
0.0
  0
ARC
  5
8C
100
AcDbEntity
  8
CUT
100
AcDbCircle
 10
13.5000
 20
21.5000
 30
0.0
 40
1.5000
100
AcDbArc
 50
180.0000
 51
270.0000
  0
ARC
  5
8D
100
AcDbEntity
  8
CUT
100
AcDbCircle
 10
30.5000
 20
21.5000
 30
0.0
 40
1.5000
100
AcDbArc
 50
270.0000
 51
360.0000
  0
ARC
  5
8E
100
AcDbEntity
  8
CUT
100
AcDbCircle
 10
30.5000
 20
31.5000
 30
0.0
 40
1.5000
100
AcDbArc
 50
0.0000
 51
90.0000
  0
ARC
  5
8F
100
AcDbEntity
  8
CUT
100
AcDbCircle
 10
13.5000
 20
31.5000
 30
0.0
 40
1.5000
100
AcDbArc
 50
90.0000
 51
180.0000
  0
LINE
  5
90
100
AcDbEntity
  8
CENTERLINE
100
AcDbLine
 10
22.0000
 20
16.5000
 30
0.0
 11
22.0000
 21
36.5000
 31
0.0
  0
LINE
  5
91
100
AcDbEntity
  8
CENTERLINE
100
AcDbLine
 10
8.0000
 20
26.5000
 30
0.0
 11
36.0000
 21
26.5000
 31
0.0
  0
TEXT
  5
92
100
AcDbEntity
  8
ENGRAVE
100
AcDbText
 10
22.0000
 20
36.5000
 30
0.0
 40
2.0000
  1
POWER
 72
1
 11
22.0000
 21
36.5000
 31
0.0
100
AcDbText
  0
TEXT
  5
93
100
AcDbEntity
  8
DIMENSION
100
AcDbText
 10
22.0000
 20
15.0000
 30
0.0
 40
1.5000
  1
20x13mm
 72
1
 11
22.0000
 21
15.0000
 31
0.0
100
AcDbText
  0
CIRCLE
  5
94
100
AcDbEntity
  8
CUT
100
AcDbCircle
 10
52.0000
 20
26.5000
 30
0.0
 40
6.0000
  0
LINE
  5
95
100
AcDbEntity
  8
CENTERLINE
100
AcDbLine
 10
52.0000
 20
16.5000
 30
0.0
 11
52.0000
 21
36.5000
 31
0.0
  0
LINE
  5
96
100
AcDbEntity
  8
CENTERLINE
100
AcDbLine
 10
42.0000
 20
26.5000
 30
0.0
 11
62.0000
 21
26.5000
 31
0.0
  0
TEXT
  5
97
100
AcDbEntity
  8
ENGRAVE
100
AcDbText
 10
52.0000
 20
36.0000
 30
0.0
 40
2.0000
  1
12V CHARGE
 72
1
 11
52.0000
 21
36.0000
 31
0.0
100
AcDbText
  0
TEXT
  5
98
100
AcDbEntity
  8
DIMENSION
100
AcDbText
 10
52.0000
 20
15.5000
 30
0.0
 40
1.5000
  1
12mm dia.
 72
1
 11
52.0000
 21
15.5000
 31
0.0
100
AcDbText
  0
LINE
  5
99
100
AcDbEntity
  8
CUT
100
AcDbLine
 10
83.5000
 20
24.7500
 30
0.0
 11
90.5000
 21
24.7500
 31
0.0
  0
LINE
  5
9A
100
AcDbEntity
  8
CUT
100
AcDbLine
 10
83.5000
 20
28.2500
 30
0.0
 11
90.5000
 21
28.2500
 31
0.0
  0
LINE
  5
9B
100
AcDbEntity
  8
CUT
100
AcDbLine
 10
82.5000
 20
25.7500
 30
0.0
 11
82.5000
 21
27.2500
 31
0.0
  0
LINE
  5
9C
100
AcDbEntity
  8
CUT
100
AcDbLine
 10
91.5000
 20
25.7500
 30
0.0
 11
91.5000
 21
27.2500
 31
0.0
  0
ARC
  5
9D
100
AcDbEntity
  8
CUT
100
AcDbCircle
 10
83.5000
 20
25.7500
 30
0.0
 40
1.0000
100
AcDbArc
 50
180.0000
 51
270.0000
  0
ARC
  5
9E
100
AcDbEntity
  8
CUT
100
AcDbCircle
 10
90.5000
 20
25.7500
 30
0.0
 40
1.0000
100
AcDbArc
 50
270.0000
 51
360.0000
  0
ARC
  5
9F
100
AcDbEntity
  8
CUT
100
AcDbCircle
 10
90.5000
 20
27.2500
 30
0.0
 40
1.0000
100
AcDbArc
 50
0.0000
 51
90.0000
  0
ARC
  5
A0
100
AcDbEntity
  8
CUT
100
AcDbCircle
 10
83.5000
 20
27.2500
 30
0.0
 40
1.0000
100
AcDbArc
 50
90.0000
 51
180.0000
  0
LINE
  5
A1
100
AcDbEntity
  8
CENTERLINE
100
AcDbLine
 10
87.0000
 20
18.5000
 30
0.0
 11
87.0000
 21
34.5000
 31
0.0
  0
LINE
  5
A2
100
AcDbEntity
  8
CENTERLINE
100
AcDbLine
 10
79.0000
 20
26.5000
 30
0.0
 11
95.0000
 21
26.5000
 31
0.0
  0
TEXT
  5
A3
100
AcDbEntity
  8
ENGRAVE
100
AcDbText
 10
87.0000
 20
31.7500
 30
0.0
 40
2.0000
  1
USB-C CHARGE
 72
1
 11
87.0000
 21
31.7500
 31
0.0
100
AcDbText
  0
TEXT
  5
A4
100
AcDbEntity
  8
DIMENSION
100
AcDbText
 10
87.0000
 20
19.7500
 30
0.0
 40
1.5000
  1
9x3.5mm
 72
1
 11
87.0000
 21
19.7500
 31
0.0
100
AcDbText
  0
TEXT
  5
A5
100
AcDbEntity
  8
ENGRAVE
100
AcDbText
 10
51.5000
 20
4.0000
 30
0.0
 40
2.5000
  1
REMOTE CONTROLLER
 72
1
 11
51.5000
 21
4.0000
 31
0.0
100
AcDbText
  0
LINE
  5
A6
100
AcDbEntity
  8
DIMENSION
100
AcDbLine
 10
0.0000
 20
-6.0000
 30
0.0
 11
103.0000
 21
-6.0000
 31
0.0
  0
LINE
  5
A7
100
AcDbEntity
  8
DIMENSION
100
AcDbLine
 10
0.0000
 20
-4.0000
 30
0.0
 11
0.0000
 21
-8.0000
 31
0.0
  0
LINE
  5
A8
100
AcDbEntity
  8
DIMENSION
100
AcDbLine
 10
103.0000
 20
-4.0000
 30
0.0
 11
103.0000
 21
-8.0000
 31
0.0
  0
TEXT
  5
A9
100
AcDbEntity
  8
DIMENSION
100
AcDbText
 10
51.5000
 20
-10.0000
 30
0.0
 40
1.8000
  1
103mm
 72
1
 11
51.5000
 21
-10.0000
 31
0.0
100
AcDbText
  0
LINE
  5
AA
100
AcDbEntity
  8
DIMENSION
100
AcDbLine
 10
107.0000
 20
0.0000
 30
0.0
 11
107.0000
 21
53.0000
 31
0.0
  0
LINE
  5
AB
100
AcDbEntity
  8
DIMENSION
100
AcDbLine
 10
105.0000
 20
0.0000
 30
0.0
 11
109.0000
 21
0.0000
 31
0.0
  0
LINE
  5
AC
100
AcDbEntity
  8
DIMENSION
100
AcDbLine
 10
105.0000
 20
53.0000
 30
0.0
 11
109.0000
 21
53.0000
 31
0.0
  0
TEXT
  5
AD
100
AcDbEntity
  8
DIMENSION
100
AcDbText
 10
113.0000
 20
26.5000
 30
0.0
 40
1.8000
  1
53mm
 72
1
 11
113.0000
 21
26.5000
 31
0.0
100
AcDbText
  0
ENDSEC
  0
SECTION
  2
OBJECTS
  0
DICTIONARY
  5
C
100
AcDbDictionary
281
1
  3
ACAD_GROUP
350
D
  3
ACAD_MLINESTYLE
350
17
  0
DICTIONARY
  5
D
100
AcDbDictionary
281
1
  0
DICTIONARY
  5
17
100
AcDbDictionary
281
1
  3
Standard
350
18
  0
MLINESTYLE
  5
18
100
AcDbMlineStyle
  2
Standard
 70
0
  3

 62
256
 51
90.0
 52
90.0
 71
2
 49
0.5
 62
256
  6

 49
-0.5
 62
256
  6

  0
ENDSEC
  0
EOF
