<svg xmlns="http://www.w3.org/2000/svg" width="920" height="521" viewBox="0 0 920 521" font-family="sans-serif" role="img">
<title>Front panel elevation — true to scale (mm)</title>
<rect x="54.0" y="47.0" width="721.0" height="371.0" fill="#f3f2ee" stroke="#333" stroke-width="1.5"/>
<line x1="183.5" y1="106.5" x2="183.5" y2="218.5" stroke="#c9c9c9" stroke-width="0.6" stroke-dasharray="4 1.5 1 1.5"/>
<line x1="127.5" y1="162.5" x2="239.5" y2="162.5" stroke="#c9c9c9" stroke-width="0.6" stroke-dasharray="4 1.5 1 1.5"/>
<line x1="183.5" y1="246.5" x2="183.5" y2="358.5" stroke="#c9c9c9" stroke-width="0.6" stroke-dasharray="4 1.5 1 1.5"/>
<line x1="127.5" y1="302.5" x2="239.5" y2="302.5" stroke="#c9c9c9" stroke-width="0.6" stroke-dasharray="4 1.5 1 1.5"/>
<line x1="337.5" y1="106.5" x2="337.5" y2="218.5" stroke="#c9c9c9" stroke-width="0.6" stroke-dasharray="4 1.5 1 1.5"/>
<line x1="281.5" y1="162.5" x2="393.5" y2="162.5" stroke="#c9c9c9" stroke-width="0.6" stroke-dasharray="4 1.5 1 1.5"/>
<line x1="337.5" y1="246.5" x2="337.5" y2="358.5" stroke="#c9c9c9" stroke-width="0.6" stroke-dasharray="4 1.5 1 1.5"/>
<line x1="281.5" y1="302.5" x2="393.5" y2="302.5" stroke="#c9c9c9" stroke-width="0.6" stroke-dasharray="4 1.5 1 1.5"/>
<line x1="491.5" y1="106.5" x2="491.5" y2="218.5" stroke="#c9c9c9" stroke-width="0.6" stroke-dasharray="4 1.5 1 1.5"/>
<line x1="435.5" y1="162.5" x2="547.5" y2="162.5" stroke="#c9c9c9" stroke-width="0.6" stroke-dasharray="4 1.5 1 1.5"/>
<line x1="491.5" y1="246.5" x2="491.5" y2="358.5" stroke="#c9c9c9" stroke-width="0.6" stroke-dasharray="4 1.5 1 1.5"/>
<line x1="435.5" y1="302.5" x2="547.5" y2="302.5" stroke="#c9c9c9" stroke-width="0.6" stroke-dasharray="4 1.5 1 1.5"/>
<line x1="645.5" y1="106.5" x2="645.5" y2="218.5" stroke="#c9c9c9" stroke-width="0.6" stroke-dasharray="4 1.5 1 1.5"/>
<line x1="589.5" y1="162.5" x2="701.5" y2="162.5" stroke="#c9c9c9" stroke-width="0.6" stroke-dasharray="4 1.5 1 1.5"/>
<line x1="645.5" y1="246.5" x2="645.5" y2="358.5" stroke="#c9c9c9" stroke-width="0.6" stroke-dasharray="4 1.5 1 1.5"/>
<line x1="589.5" y1="302.5" x2="701.5" y2="302.5" stroke="#c9c9c9" stroke-width="0.6" stroke-dasharray="4 1.5 1 1.5"/>
<line x1="712.0" y1="190.5" x2="712.0" y2="274.5" stroke="#c9c9c9" stroke-width="0.6" stroke-dasharray="4 1.5 1 1.5"/>
<line x1="670.0" y1="232.5" x2="754.0" y2="232.5" stroke="#c9c9c9" stroke-width="0.6" stroke-dasharray="4 1.5 1 1.5"/>
<circle cx="89.0" cy="383.0" r="10.5" fill="#ffffff" stroke="#c2410c" stroke-width="1.3"/>
<circle cx="740.0" cy="383.0" r="10.5" fill="#ffffff" stroke="#c2410c" stroke-width="1.3"/>
<circle cx="89.0" cy="82.0" r="10.5" fill="#ffffff" stroke="#c2410c" stroke-width="1.3"/>
<circle cx="740.0" cy="82.0" r="10.5" fill="#ffffff" stroke="#c2410c" stroke-width="1.3"/>
<circle cx="183.5" cy="162.5" r="28.0" fill="#ffffff" stroke="#c2410c" stroke-width="1.3"/>
<circle cx="183.5" cy="302.5" r="28.0" fill="#ffffff" stroke="#c2410c" stroke-width="1.3"/>
<circle cx="337.5" cy="162.5" r="28.0" fill="#ffffff" stroke="#c2410c" stroke-width="1.3"/>
<circle cx="337.5" cy="302.5" r="28.0" fill="#ffffff" stroke="#c2410c" stroke-width="1.3"/>
<circle cx="491.5" cy="162.5" r="28.0" fill="#ffffff" stroke="#c2410c" stroke-width="1.3"/>
<circle cx="491.5" cy="302.5" r="28.0" fill="#ffffff" stroke="#c2410c" stroke-width="1.3"/>
<circle cx="645.5" cy="162.5" r="28.0" fill="#ffffff" stroke="#c2410c" stroke-width="1.3"/>
<circle cx="645.5" cy="302.5" r="28.0" fill="#ffffff" stroke="#c2410c" stroke-width="1.3"/>
<circle cx="712.0" cy="232.5" r="17.5" fill="#ffffff" stroke="#c2410c" stroke-width="1.3"/>
<line x1="183.5" y1="341.0" x2="337.5" y2="341.0" stroke="#999" stroke-width="0.7"/>
<line x1="183.5" y1="330.5" x2="183.5" y2="351.5" stroke="#999" stroke-width="0.7"/>
<line x1="337.5" y1="330.5" x2="337.5" y2="351.5" stroke="#999" stroke-width="0.7"/>
<text x="183.5" y="99.5" font-size="17.5" fill="#0c447c" text-anchor="middle" font-weight="600" font-style="normal">CH1</text>
<text x="138.0" y="167.5" font-size="14.0" fill="#0c447c" text-anchor="middle" font-weight="600" font-style="normal">+</text>
<text x="138.0" y="307.5" font-size="14.0" fill="#0c447c" text-anchor="middle" font-weight="600" font-style="normal">&#8211;</text>
<text x="337.5" y="99.5" font-size="17.5" fill="#0c447c" text-anchor="middle" font-weight="600" font-style="normal">CH2</text>
<text x="292.0" y="167.5" font-size="14.0" fill="#0c447c" text-anchor="middle" font-weight="600" font-style="normal">+</text>
<text x="292.0" y="307.5" font-size="14.0" fill="#0c447c" text-anchor="middle" font-weight="600" font-style="normal">&#8211;</text>
<text x="491.5" y="99.5" font-size="17.5" fill="#0c447c" text-anchor="middle" font-weight="600" font-style="normal">CH3</text>
<text x="446.0" y="167.5" font-size="14.0" fill="#0c447c" text-anchor="middle" font-weight="600" font-style="normal">+</text>
<text x="446.0" y="307.5" font-size="14.0" fill="#0c447c" text-anchor="middle" font-weight="600" font-style="normal">&#8211;</text>
<text x="645.5" y="99.5" font-size="17.5" fill="#0c447c" text-anchor="middle" font-weight="600" font-style="normal">CH4</text>
<text x="600.0" y="167.5" font-size="14.0" fill="#0c447c" text-anchor="middle" font-weight="600" font-style="normal">+</text>
<text x="600.0" y="307.5" font-size="14.0" fill="#0c447c" text-anchor="middle" font-weight="600" font-style="normal">&#8211;</text>
<text x="712.0" y="197.5" font-size="12.6" fill="#0c447c" text-anchor="middle" font-weight="600" font-style="normal">STATUS</text>
<text x="414.5" y="390.0" font-size="17.5" fill="#0c447c" text-anchor="middle" font-weight="600" font-style="normal">IGNITER CONTROLLER</text>
<text x="260.5" y="362.0" font-size="10.5" fill="#888" text-anchor="middle" font-weight="400" font-style="italic">22mm</text>
<line x1="54.0" y1="460.0" x2="775.0" y2="460.0" stroke="#999" stroke-width="0.7"/>
<line x1="54.0" y1="446.0" x2="54.0" y2="474.0" stroke="#999" stroke-width="0.7"/>
<line x1="775.0" y1="446.0" x2="775.0" y2="474.0" stroke="#999" stroke-width="0.7"/>
<line x1="803.0" y1="418.0" x2="803.0" y2="47.0" stroke="#999" stroke-width="0.7"/>
<line x1="789.0" y1="418.0" x2="817.0" y2="418.0" stroke="#999" stroke-width="0.7"/>
<line x1="789.0" y1="47.0" x2="817.0" y2="47.0" stroke="#999" stroke-width="0.7"/>
<text x="414.5" y="488.0" font-size="12.6" fill="#888" text-anchor="middle" font-weight="400" font-style="italic">103mm</text>
<text x="845.0" y="232.5" font-size="12.6" fill="#888" text-anchor="middle" font-weight="400" font-style="italic">53mm</text>
</svg>