<svg xmlns="http://www.w3.org/2000/svg" width="920" height="521" viewBox="0 0 920 521" font-family="sans-serif" role="img">
<title>Front panel elevation — true to scale (mm)</title>
<rect x="54.0" y="47.0" width="721.0" height="371.0" fill="#f3f2ee" stroke="#333" stroke-width="1.5"/>
<line x1="127.5" y1="288.5" x2="127.5" y2="176.5" stroke="#c9c9c9" stroke-width="0.6" stroke-dasharray="4 1.5 1 1.5"/>
<line x1="71.5" y1="232.5" x2="183.5" y2="232.5" stroke="#c9c9c9" stroke-width="0.6" stroke-dasharray="4 1.5 1 1.5"/>
<line x1="197.5" y1="288.5" x2="197.5" y2="176.5" stroke="#c9c9c9" stroke-width="0.6" stroke-dasharray="4 1.5 1 1.5"/>
<line x1="141.5" y1="232.5" x2="253.5" y2="232.5" stroke="#c9c9c9" stroke-width="0.6" stroke-dasharray="4 1.5 1 1.5"/>
<line x1="295.5" y1="288.5" x2="295.5" y2="176.5" stroke="#c9c9c9" stroke-width="0.6" stroke-dasharray="4 1.5 1 1.5"/>
<line x1="239.5" y1="232.5" x2="351.5" y2="232.5" stroke="#c9c9c9" stroke-width="0.6" stroke-dasharray="4 1.5 1 1.5"/>
<line x1="365.5" y1="288.5" x2="365.5" y2="176.5" stroke="#c9c9c9" stroke-width="0.6" stroke-dasharray="4 1.5 1 1.5"/>
<line x1="309.5" y1="232.5" x2="421.5" y2="232.5" stroke="#c9c9c9" stroke-width="0.6" stroke-dasharray="4 1.5 1 1.5"/>
<line x1="463.5" y1="288.5" x2="463.5" y2="176.5" stroke="#c9c9c9" stroke-width="0.6" stroke-dasharray="4 1.5 1 1.5"/>
<line x1="407.5" y1="232.5" x2="519.5" y2="232.5" stroke="#c9c9c9" stroke-width="0.6" stroke-dasharray="4 1.5 1 1.5"/>
<line x1="533.5" y1="288.5" x2="533.5" y2="176.5" stroke="#c9c9c9" stroke-width="0.6" stroke-dasharray="4 1.5 1 1.5"/>
<line x1="477.5" y1="232.5" x2="589.5" y2="232.5" stroke="#c9c9c9" stroke-width="0.6" stroke-dasharray="4 1.5 1 1.5"/>
<line x1="631.5" y1="288.5" x2="631.5" y2="176.5" stroke="#c9c9c9" stroke-width="0.6" stroke-dasharray="4 1.5 1 1.5"/>
<line x1="575.5" y1="232.5" x2="687.5" y2="232.5" stroke="#c9c9c9" stroke-width="0.6" stroke-dasharray="4 1.5 1 1.5"/>
<line x1="701.5" y1="288.5" x2="701.5" y2="176.5" stroke="#c9c9c9" stroke-width="0.6" stroke-dasharray="4 1.5 1 1.5"/>
<line x1="645.5" y1="232.5" x2="757.5" y2="232.5" stroke="#c9c9c9" stroke-width="0.6" stroke-dasharray="4 1.5 1 1.5"/>
<line x1="712.0" y1="159.0" x2="712.0" y2="75.0" stroke="#c9c9c9" stroke-width="0.6" stroke-dasharray="4 1.5 1 1.5"/>
<line x1="670.0" y1="117.0" x2="754.0" y2="117.0" stroke="#c9c9c9" stroke-width="0.6" stroke-dasharray="4 1.5 1 1.5"/>
<circle cx="89.0" cy="383.0" r="10.5" fill="#ffffff" stroke="#c2410c" stroke-width="1.3"/>
<circle cx="740.0" cy="383.0" r="10.5" fill="#ffffff" stroke="#c2410c" stroke-width="1.3"/>
<circle cx="89.0" cy="82.0" r="10.5" fill="#ffffff" stroke="#c2410c" stroke-width="1.3"/>
<circle cx="740.0" cy="82.0" r="10.5" fill="#ffffff" stroke="#c2410c" stroke-width="1.3"/>
<circle cx="127.5" cy="232.5" r="28.0" fill="#ffffff" stroke="#c2410c" stroke-width="1.3"/>
<circle cx="197.5" cy="232.5" r="28.0" fill="#ffffff" stroke="#c2410c" stroke-width="1.3"/>
<circle cx="295.5" cy="232.5" r="28.0" fill="#ffffff" stroke="#c2410c" stroke-width="1.3"/>
<circle cx="365.5" cy="232.5" r="28.0" fill="#ffffff" stroke="#c2410c" stroke-width="1.3"/>
<circle cx="463.5" cy="232.5" r="28.0" fill="#ffffff" stroke="#c2410c" stroke-width="1.3"/>
<circle cx="533.5" cy="232.5" r="28.0" fill="#ffffff" stroke="#c2410c" stroke-width="1.3"/>
<circle cx="631.5" cy="232.5" r="28.0" fill="#ffffff" stroke="#c2410c" stroke-width="1.3"/>
<circle cx="701.5" cy="232.5" r="28.0" fill="#ffffff" stroke="#c2410c" stroke-width="1.3"/>
<circle cx="712.0" cy="117.0" r="17.5" fill="#ffffff" stroke="#c2410c" stroke-width="1.3"/>
<line x1="54.0" y1="460.0" x2="775.0" y2="460.0" stroke="#999" stroke-width="0.7"/>
<line x1="54.0" y1="446.0" x2="54.0" y2="474.0" stroke="#999" stroke-width="0.7"/>
<line x1="775.0" y1="446.0" x2="775.0" y2="474.0" stroke="#999" stroke-width="0.7"/>
<line x1="803.0" y1="418.0" x2="803.0" y2="47.0" stroke="#999" stroke-width="0.7"/>
<line x1="789.0" y1="418.0" x2="817.0" y2="418.0" stroke="#999" stroke-width="0.7"/>
<line x1="789.0" y1="47.0" x2="817.0" y2="47.0" stroke="#999" stroke-width="0.7"/>
<line x1="127.5" y1="330.5" x2="197.5" y2="330.5" stroke="#999" stroke-width="0.7"/>
<line x1="127.5" y1="316.5" x2="127.5" y2="344.5" stroke="#999" stroke-width="0.7"/>
<line x1="197.5" y1="316.5" x2="197.5" y2="344.5" stroke="#999" stroke-width="0.7"/>
<text x="162.5" y="180.0" font-size="17.5" fill="#0c447c" text-anchor="middle" font-weight="600" font-style="normal">CH1</text>
<text x="127.5" y="281.5" font-size="14.0" fill="#0c447c" text-anchor="middle" font-weight="600" font-style="normal">+</text>
<text x="197.5" y="281.5" font-size="14.0" fill="#0c447c" text-anchor="middle" font-weight="600" font-style="normal">-</text>
<text x="330.5" y="180.0" font-size="17.5" fill="#0c447c" text-anchor="middle" font-weight="600" font-style="normal">CH2</text>
<text x="295.5" y="281.5" font-size="14.0" fill="#0c447c" text-anchor="middle" font-weight="600" font-style="normal">+</text>
<text x="365.5" y="281.5" font-size="14.0" fill="#0c447c" text-anchor="middle" font-weight="600" font-style="normal">-</text>
<text x="498.5" y="180.0" font-size="17.5" fill="#0c447c" text-anchor="middle" font-weight="600" font-style="normal">CH3</text>
<text x="463.5" y="281.5" font-size="14.0" fill="#0c447c" text-anchor="middle" font-weight="600" font-style="normal">+</text>
<text x="533.5" y="281.5" font-size="14.0" fill="#0c447c" text-anchor="middle" font-weight="600" font-style="normal">-</text>
<text x="666.5" y="180.0" font-size="17.5" fill="#0c447c" text-anchor="middle" font-weight="600" font-style="normal">CH4</text>
<text x="631.5" y="281.5" font-size="14.0" fill="#0c447c" text-anchor="middle" font-weight="600" font-style="normal">+</text>
<text x="701.5" y="281.5" font-size="14.0" fill="#0c447c" text-anchor="middle" font-weight="600" font-style="normal">-</text>
<text x="712.0" y="85.5" font-size="12.6" fill="#0c447c" text-anchor="middle" font-weight="600" font-style="normal">STATUS</text>
<text x="414.5" y="390.0" font-size="17.5" fill="#0c447c" text-anchor="middle" font-weight="600" font-style="normal">IGNITER CONTROLLER</text>
<text x="414.5" y="488.0" font-size="12.6" fill="#888" text-anchor="middle" font-weight="400" font-style="italic">103mm</text>
<text x="845.0" y="232.5" font-size="12.6" fill="#888" text-anchor="middle" font-weight="400" font-style="italic">53mm</text>
<text x="162.5" y="358.5" font-size="10.5" fill="#888" text-anchor="middle" font-weight="400" font-style="italic">10mm</text>
</svg>