<svg xmlns="http://www.w3.org/2000/svg" width="680" viewBox="0 0 680 660" font-family="sans-serif" role="img">
<title>Parts breakout — every component of the 4-channel remote ignitor</title>
<desc>Card grid of all components grouped by function: logic and control, power and charging, switching and protection, output, and board and structure.</desc>
<text x="12" y="26" font-size="17" font-weight="600" fill="#1a1a1a">Parts breakout</text>
<text x="12" y="44" font-size="12" fill="#888">Every component, grouped by function — reference designator, part, and role</text>
<rect x="12" y="58" width="318" height="84" rx="9" fill="#ffffff" stroke="#e2e0d8" stroke-width="1"/>
<rect x="12" y="72" width="4" height="56" rx="2" fill="#534ab7"/>
<g><rect x="32" y="86" width="28" height="30" rx="2" fill="#26215C"/><rect x="38" y="82" width="16" height="6" rx="1" fill="#3C3489"/><g fill="#AFA9EC"><rect x="34" y="92" width="4" height="2"/><rect x="34" y="98" width="4" height="2"/><rect x="34" y="104" width="4" height="2"/><rect x="54" y="92" width="4" height="2"/><rect x="54" y="98" width="4" height="2"/><rect x="54" y="104" width="4" height="2"/></g><circle cx="50" cy="106" r="2.5" fill="#9FE1CB"/></g>
<rect x="78" y="72" width="24" height="17" rx="8" fill="#EEEDFE"/>
<text x="90" y="84" text-anchor="middle" font-size="11" font-weight="600" fill="#26215C">U2</text>
<text x="110" y="85" font-size="13.5" font-weight="600" fill="#1a1a1a">ESP32-S3 Super Mini</text>
<text x="78" y="108" font-size="11.5" fill="#555">BLE 5.0 brain. GPIO4-7 fire the</text>
<text x="78" y="124" font-size="11.5" fill="#555">channels; GPIO2 drives status LED.</text>
<rect x="342" y="58" width="318" height="84" rx="9" fill="#ffffff" stroke="#e2e0d8" stroke-width="1"/>
<rect x="342" y="72" width="4" height="56" rx="2" fill="#534ab7"/>
<g><rect x="358" y="90" width="36" height="22" rx="2" fill="#3C3489"/><g fill="#1a1640"><rect x="361" y="94" width="7" height="14" rx="1"/><rect x="369" y="94" width="7" height="14" rx="1"/><rect x="377" y="94" width="7" height="14" rx="1"/><rect x="385" y="94" width="7" height="14" rx="1"/></g></g>
<rect x="408" y="72" width="24" height="17" rx="8" fill="#EEEDFE"/>
<text x="420" y="84" text-anchor="middle" font-size="11" font-weight="600" fill="#26215C">K1</text>
<text x="440" y="85" font-size="13.5" font-weight="600" fill="#1a1a1a">VNFOCKQSH 4-ch relay</text>
<text x="408" y="108" font-size="11.5" fill="#555">5V opto-isolated, off-board. COM is</text>
<text x="408" y="124" font-size="11.5" fill="#555">fused 7.4V, NO goes to the posts.</text>
<rect x="12" y="156" width="318" height="84" rx="9" fill="#ffffff" stroke="#e2e0d8" stroke-width="1"/>
<rect x="12" y="170" width="4" height="56" rx="2" fill="#BA7517"/>
<g fill="#854F0B"><rect x="28" y="190" width="16" height="16" rx="3"/><rect x="43" y="195" width="3" height="6"/><rect x="48" y="190" width="16" height="16" rx="3"/><rect x="63" y="195" width="3" height="6"/></g>
<rect x="78" y="170" width="24" height="17" rx="8" fill="#FAEEDA"/>
<text x="90" y="182" text-anchor="middle" font-size="11" font-weight="600" fill="#633806">B1</text>
<text x="110" y="183" font-size="13.5" font-weight="600" fill="#1a1a1a">2S pack — 2x Samsung 30Q</text>
<text x="78" y="206" font-size="11.5" fill="#555">Two 18650 in series, 7.4V ~3000mAh.</text>
<text x="78" y="222" font-size="11.5" fill="#555">Fires igniters and feeds the boost.</text>
<rect x="342" y="156" width="318" height="84" rx="9" fill="#ffffff" stroke="#e2e0d8" stroke-width="1"/>
<rect x="342" y="170" width="4" height="56" rx="2" fill="#BA7517"/>
<g><rect x="360" y="188" width="32" height="20" rx="2" fill="#633806"/><rect x="364" y="192" width="24" height="4" rx="1" fill="#BA7517"/><circle cx="368" cy="203" r="2" fill="#FAC775"/><circle cx="376" cy="203" r="2" fill="#FAC775"/><circle cx="384" cy="203" r="2" fill="#FAC775"/></g>
<rect x="408" y="170" width="17" height="17" rx="8" fill="#FAEEDA"/>
<text x="417" y="182" text-anchor="middle" font-size="11" font-weight="600" fill="#633806">—</text>
<text x="433" y="183" font-size="13.5" font-weight="600" fill="#1a1a1a">2S Li-ion BMS</text>
<text x="408" y="206" font-size="11.5" fill="#555">10A+ protection: over-current,</text>
<text x="408" y="222" font-size="11.5" fill="#555">over-discharge, cell balance.</text>
<rect x="12" y="254" width="318" height="84" rx="9" fill="#ffffff" stroke="#e2e0d8" stroke-width="1"/>
<rect x="12" y="268" width="4" height="56" rx="2" fill="#BA7517"/>
<g><rect x="28" y="286" width="36" height="20" rx="2" fill="#854F0B"/><rect x="32" y="290" width="12" height="12" rx="1" fill="#412402"/><circle cx="54" cy="296" r="5" fill="#EF9F27"/><path d="M54 293 v6 M51 296 h6" stroke="#412402" stroke-width="1.3"/></g>
<rect x="78" y="268" width="24" height="17" rx="8" fill="#FAEEDA"/>
<text x="90" y="280" text-anchor="middle" font-size="11" font-weight="600" fill="#633806">U1</text>
<text x="110" y="281" font-size="13.5" font-weight="600" fill="#1a1a1a">MT3608 boost converter</text>
<text x="78" y="304" font-size="11.5" fill="#555">Steps 7.4V up to a trimmed 5.00V</text>
<text x="78" y="320" font-size="11.5" fill="#555">logic rail for ESP32 + relay coil.</text>
<rect x="342" y="254" width="318" height="84" rx="9" fill="#ffffff" stroke="#e2e0d8" stroke-width="1"/>
<rect x="342" y="268" width="4" height="56" rx="2" fill="#BA7517"/>
<g><rect x="358" y="291" width="22" height="12" rx="3" fill="#5F5E5A"/><circle cx="382" cy="297" r="9" fill="#2C2C2A"/><circle cx="382" cy="297" r="3" fill="#888780"/></g>
<rect x="408" y="268" width="24" height="17" rx="8" fill="#FAEEDA"/>
<text x="420" y="280" text-anchor="middle" font-size="11" font-weight="600" fill="#633806">J1</text>
<text x="440" y="281" font-size="13.5" font-weight="600" fill="#1a1a1a">DaierTek barrel jack</text>
<text x="408" y="304" font-size="11.5" fill="#555">5.5x2.1mm charge port. 8.4V wall</text>
<text x="408" y="320" font-size="11.5" fill="#555">charger tops the pack via the BMS.</text>
<rect x="12" y="352" width="318" height="84" rx="9" fill="#ffffff" stroke="#e2e0d8" stroke-width="1"/>
<rect x="12" y="366" width="4" height="56" rx="2" fill="#0f6e56"/>
<g><rect x="34" y="382" width="24" height="24" rx="3" fill="#0F6E56"/><path d="M42 384 v20 M50 384 v20" stroke="#9FE1CB" stroke-width="2.5"/></g>
<rect x="78" y="366" width="24" height="17" rx="8" fill="#E1F5EE"/>
<text x="90" y="378" text-anchor="middle" font-size="11" font-weight="600" fill="#04342C">F1</text>
<text x="110" y="379" font-size="13.5" font-weight="600" fill="#1a1a1a">5A inline blade fuse</text>
<text x="78" y="402" font-size="11.5" fill="#555">In series with the 7.4V rail. Inline</text>
<text x="78" y="418" font-size="11.5" fill="#555">pigtail holder, mounted inside the box.</text>
<rect x="342" y="352" width="318" height="84" rx="9" fill="#ffffff" stroke="#e2e0d8" stroke-width="1"/>
<rect x="342" y="366" width="4" height="56" rx="2" fill="#0f6e56"/>
<g><line x1="358" y1="394" x2="368" y2="394" stroke="#0F6E56" stroke-width="2"/><polygon points="368,386 368,402 382,394" fill="#0F6E56"/><line x1="382" y1="386" x2="382" y2="402" stroke="#085041" stroke-width="2.5"/><line x1="382" y1="394" x2="394" y2="394" stroke="#0F6E56" stroke-width="2"/></g>
<rect x="408" y="366" width="46" height="17" rx="8" fill="#E1F5EE"/>
<text x="431" y="378" text-anchor="middle" font-size="11" font-weight="600" fill="#04342C">D2-D5</text>
<text x="462" y="379" font-size="13.5" font-weight="600" fill="#1a1a1a">P6KE15A TVS diodes</text>
<text x="408" y="402" font-size="11.5" fill="#555">One per channel across the output.</text>
<text x="408" y="418" font-size="11.5" fill="#555">Cathode to + post; clamps spikes.</text>
<rect x="12" y="450" width="318" height="84" rx="9" fill="#ffffff" stroke="#e2e0d8" stroke-width="1"/>
<rect x="12" y="464" width="4" height="56" rx="2" fill="#D85A30"/>
<g><circle cx="38" cy="492" r="10" fill="#C1402A"/><circle cx="38" cy="492" r="3.5" fill="#4A1B0C"/><circle cx="56" cy="492" r="10" fill="#26211f"/><circle cx="56" cy="492" r="3.5" fill="#888780"/></g>
<rect x="78" y="464" width="60" height="17" rx="8" fill="#FAECE7"/>
<text x="108" y="476" text-anchor="middle" font-size="11" font-weight="600" fill="#4A1B0C">BT1-BT4</text>
<text x="146" y="477" font-size="13.5" font-weight="600" fill="#1a1a1a">Banana binding posts</text>
<text x="78" y="500" font-size="11.5" fill="#555">Four red/black pairs up front.</text>
<text x="78" y="516" font-size="11.5" fill="#555">Alligator leads clip on to fire 1-4.</text>
<rect x="342" y="450" width="318" height="84" rx="9" fill="#ffffff" stroke="#e2e0d8" stroke-width="1"/>
<rect x="342" y="464" width="4" height="56" rx="2" fill="#5F5E5A"/>
<g><rect x="358" y="480" width="36" height="24" rx="2" fill="#173404"/><g fill="#27500A"><circle cx="364" cy="486" r="1.6"/><circle cx="370" cy="486" r="1.6"/><circle cx="364" cy="492" r="1.6"/><circle cx="370" cy="492" r="1.6"/></g><rect x="378" y="484" width="7" height="14" rx="1" fill="#854F0B"/><circle cx="389" cy="487" r="2.5" fill="#97C459"/></g>
<rect x="408" y="464" width="32" height="17" rx="8" fill="#F1EFE8"/>
<text x="424" y="476" text-anchor="middle" font-size="11" font-weight="600" fill="#2C2C2A">PCB</text>
<text x="448" y="477" font-size="13.5" font-weight="600" fill="#1a1a1a">ElectroCookie + passives</text>
<text x="408" y="500" font-size="11.5" fill="#555">Holds R1, LED D1, C1 bulk +</text>
<text x="408" y="516" font-size="11.5" fill="#555">C2-C5 caps, headers, terminals.</text>
<rect x="12" y="548" width="318" height="84" rx="9" fill="#ffffff" stroke="#e2e0d8" stroke-width="1"/>
<rect x="12" y="562" width="4" height="56" rx="2" fill="#5F5E5A"/>
<g><polygon points="28,584 56,584 64,576 36,576" fill="#46453f"/><polygon points="56,584 56,602 64,594 64,576" fill="#201f1d"/><rect x="28" y="584" width="28" height="18" fill="#2b2b29"/></g>
<rect x="78" y="562" width="32" height="17" rx="8" fill="#F1EFE8"/>
<text x="94" y="574" text-anchor="middle" font-size="11" font-weight="600" fill="#2C2C2A">ENC</text>
<text x="118" y="575" font-size="13.5" font-weight="600" fill="#1a1a1a">Hammond enclosure + panels</text>
<text x="78" y="598" font-size="11.5" fill="#555">160x103x53mm anodized shell with</text>
<text x="78" y="614" font-size="11.5" fill="#555">custom SendCutSend front/rear panels.</text>
<text x="12" y="652" font-size="11" fill="#888">Colour key:</text>
<rect x="88" y="640" width="11" height="11" rx="2" fill="#534ab7"/>
<text x="104" y="650" font-size="11" fill="#555">Logic &amp; control</text>
<rect x="233.8" y="640" width="11" height="11" rx="2" fill="#BA7517"/>
<text x="249.8" y="650" font-size="11" fill="#555">Power &amp; charging</text>
<rect x="385.8" y="640" width="11" height="11" rx="2" fill="#0f6e56"/>
<text x="401.8" y="650" font-size="11" fill="#555">Switching &amp; protection</text>
<rect x="575.0" y="640" width="11" height="11" rx="2" fill="#D85A30"/>
<text x="591.0" y="650" font-size="11" fill="#555">Output</text>
<rect x="640.2" y="640" width="11" height="11" rx="2" fill="#5F5E5A"/>
<text x="656.2" y="650" font-size="11" fill="#555">Board &amp; structure</text>
</svg>