<svg xmlns="http://www.w3.org/2000/svg" width="920" height="521" viewBox="0 0 920 521" font-family="sans-serif" role="img">
<title>Rear panel elevation — true to scale (mm)</title>
<rect x="54.0" y="47.0" width="721.0" height="371.0" fill="#f3f2ee" stroke="#333" stroke-width="1.5"/>
<line x1="208.0" y1="302.5" x2="208.0" y2="162.5" stroke="#c9c9c9" stroke-width="0.6" stroke-dasharray="4 1.5 1 1.5"/>
<line x1="110.0" y1="232.5" x2="306.0" y2="232.5" stroke="#c9c9c9" stroke-width="0.6" stroke-dasharray="4 1.5 1 1.5"/>
<line x1="418.0" y1="302.5" x2="418.0" y2="162.5" stroke="#c9c9c9" stroke-width="0.6" stroke-dasharray="4 1.5 1 1.5"/>
<line x1="348.0" y1="232.5" x2="488.0" y2="232.5" stroke="#c9c9c9" stroke-width="0.6" stroke-dasharray="4 1.5 1 1.5"/>
<line x1="663.0" y1="288.5" x2="663.0" y2="176.5" stroke="#c9c9c9" stroke-width="0.6" stroke-dasharray="4 1.5 1 1.5"/>
<line x1="607.0" y1="232.5" x2="719.0" y2="232.5" stroke="#c9c9c9" stroke-width="0.6" stroke-dasharray="4 1.5 1 1.5"/>
<circle cx="89.0" cy="383.0" r="10.5" fill="#ffffff" stroke="#c2410c" stroke-width="1.3"/>
<circle cx="740.0" cy="383.0" r="10.5" fill="#ffffff" stroke="#c2410c" stroke-width="1.3"/>
<circle cx="89.0" cy="82.0" r="10.5" fill="#ffffff" stroke="#c2410c" stroke-width="1.3"/>
<circle cx="740.0" cy="82.0" r="10.5" fill="#ffffff" stroke="#c2410c" stroke-width="1.3"/>
<circle cx="418.0" cy="232.5" r="42.0" fill="#ffffff" stroke="#c2410c" stroke-width="1.3"/>
<rect x="138.0" y="187.0" width="140.0" height="91.0" rx="10.5" fill="#ffffff" stroke="#c2410c" stroke-width="1.3"/>
<rect x="631.5" y="220.2" width="63.0" height="24.5" rx="7.0" fill="#ffffff" stroke="#c2410c" stroke-width="1.3"/>
<line x1="54.0" y1="460.0" x2="775.0" y2="460.0" stroke="#999" stroke-width="0.7"/>
<line x1="54.0" y1="446.0" x2="54.0" y2="474.0" stroke="#999" stroke-width="0.7"/>
<line x1="775.0" y1="446.0" x2="775.0" y2="474.0" stroke="#999" stroke-width="0.7"/>
<line x1="803.0" y1="418.0" x2="803.0" y2="47.0" stroke="#999" stroke-width="0.7"/>
<line x1="789.0" y1="418.0" x2="817.0" y2="418.0" stroke="#999" stroke-width="0.7"/>
<line x1="789.0" y1="47.0" x2="817.0" y2="47.0" stroke="#999" stroke-width="0.7"/>
<text x="208.0" y="162.5" font-size="14.0" fill="#0c447c" text-anchor="middle" font-weight="600" font-style="normal">FUSE</text>
<text x="208.0" y="313.0" font-size="10.5" fill="#888" text-anchor="middle" font-weight="400" font-style="italic">20x13mm</text>
<text x="418.0" y="166.0" font-size="14.0" fill="#0c447c" text-anchor="middle" font-weight="600" font-style="normal">CHARGE</text>
<text x="418.0" y="309.5" font-size="10.5" fill="#888" text-anchor="middle" font-weight="400" font-style="italic">12mm dia.</text>
<text x="663.0" y="195.8" font-size="14.0" fill="#0c447c" text-anchor="middle" font-weight="600" font-style="normal">USB-C</text>
<text x="663.0" y="279.8" font-size="10.5" fill="#888" text-anchor="middle" font-weight="400" font-style="italic">flashing</text>
<text x="414.5" y="390.0" font-size="17.5" fill="#0c447c" text-anchor="middle" font-weight="600" font-style="normal">IGNITER CONTROLLER</text>
<text x="414.5" y="488.0" font-size="12.6" fill="#888" text-anchor="middle" font-weight="400" font-style="italic">103mm</text>
<text x="845.0" y="232.5" font-size="12.6" fill="#888" text-anchor="middle" font-weight="400" font-style="italic">53mm</text>
</svg>