<svg xmlns="http://www.w3.org/2000/svg" width="1020" height="760" viewBox="0 0 1020 760" font-family="sans-serif" role="img">
<title>4-Channel Remote Ignitor — component-level schematic</title>
<desc>Engineering schematic: 2S battery and BMS, MT3608 5V boost, ESP32-S3, optocoupler-isolated 4-channel relay, per-channel TVS protection and binding-post outputs.</desc>
<rect x="0" y="0" width="1020" height="760" fill="#ffffff"/>
<rect x="10" y="10" width="1000" height="740" fill="none" stroke="#bbb"/>
<text x="510.0" y="34" font-size="15" fill="#1a1a1a" text-anchor="middle" font-weight="600" font-style="normal">4-Channel Remote Ignitor Controller — Component Schematic (Rev 3, 2S)</text>
<rect x="18" y="46" width="984" height="22" fill="#f7f7f7" stroke="#ddd"/>
<line x1="30" y1="57" x2="52" y2="57" stroke="#c2410c" stroke-width="3"/>
<text x="57" y="61" font-size="10" fill="#555" text-anchor="start" font-weight="400" font-style="normal">7.4V raw (firing)</text>
<line x1="175" y1="57" x2="197" y2="57" stroke="#0f6e56" stroke-width="3"/>
<text x="202" y="61" font-size="10" fill="#555" text-anchor="start" font-weight="400" font-style="normal">5V logic</text>
<line x1="320" y1="57" x2="342" y2="57" stroke="#444" stroke-width="3"/>
<text x="347" y="61" font-size="10" fill="#555" text-anchor="start" font-weight="400" font-style="normal">GND</text>
<line x1="465" y1="57" x2="487" y2="57" stroke="#534ab7" stroke-width="3"/>
<text x="492" y="61" font-size="10" fill="#555" text-anchor="start" font-weight="400" font-style="normal">GPIO / ribbon</text>
<line x1="610" y1="57" x2="632" y2="57" stroke="#993c1d" stroke-width="3"/>
<text x="637" y="61" font-size="10" fill="#555" text-anchor="start" font-weight="400" font-style="normal">switched output</text>
<text x="34" y="92" font-size="10" fill="#1a1a1a" text-anchor="start" font-weight="600" font-style="normal">B1  2S pack — 2x30Q</text>
<text x="34" y="104" font-size="9" fill="#777" text-anchor="start" font-weight="400" font-style="normal">7.4V nominal</text>
<line x1="66" y1="128" x2="90" y2="128" stroke="#333" stroke-width="2.4"/>
<line x1="71" y1="137" x2="85" y2="137" stroke="#333" stroke-width="2.4"/>
<line x1="66" y1="158" x2="90" y2="158" stroke="#333" stroke-width="2.4"/>
<line x1="71" y1="167" x2="85" y2="167" stroke="#333" stroke-width="2.4"/>
<text x="94" y="130" font-size="11" fill="#c2410c" text-anchor="start" font-weight="400" font-style="normal">+</text>
<line x1="78" y1="116" x2="78" y2="128" stroke="#333" stroke-width="2"/>
<line x1="78" y1="167" x2="78" y2="200" stroke="#333" stroke-width="2"/>
<line x1="78" y1="116" x2="78" y2="110" stroke="#c2410c" stroke-width="2"/>
<line x1="78" y1="110" x2="150" y2="110" stroke="#c2410c" stroke-width="2"/>
<line x1="78" y1="200" x2="78" y2="230" stroke="#333" stroke-width="2"/>
<line x1="78" y1="230" x2="150" y2="230" stroke="#333" stroke-width="2"/>
<text x="34" y="278" font-size="10" fill="#1a1a1a" text-anchor="start" font-weight="600" font-style="normal">J1  charge jack</text>
<text x="34" y="290" font-size="9" fill="#777" text-anchor="start" font-weight="400" font-style="normal">5.5x2.1mm</text>
<circle cx="78" cy="320" r="14" fill="#fafafa" stroke="#999"/>
<circle cx="78" cy="320" r="4" fill="#999"/>
<text x="40" y="316" font-size="9" fill="#777" text-anchor="end" font-weight="400" font-style="normal">8.4V</text>
<text x="40" y="328" font-size="9" fill="#777" text-anchor="end" font-weight="400" font-style="normal">chgr</text>
<line x1="64" y1="314" x2="44" y2="314" stroke="#888" stroke-width="1.5" stroke-dasharray="4 3"/>
<line x1="92" y1="316" x2="150" y2="316" stroke="#c2410c" stroke-width="2"/>
<line x1="78" y1="334" x2="78" y2="350" stroke="#444" stroke-width="2"/>
<line x1="78" y1="350" x2="150" y2="350" stroke="#444" stroke-width="2"/>
<text x="96" y="330" font-size="8" fill="#888" text-anchor="start" font-weight="400" font-style="normal">charge in</text>
<rect x="150" y="96" width="96" height="270" rx="4" fill="#fafafa" stroke="#999"/>
<text x="198" y="118" font-size="11" fill="#1a1a1a" text-anchor="middle" font-weight="600" font-style="normal">2S BMS</text>
<text x="198" y="132" font-size="9" fill="#666" text-anchor="middle" font-weight="400" font-style="normal">10A protection</text>
<text x="156" y="114" font-size="9" fill="#666" text-anchor="start" font-weight="400" font-style="normal">B+</text>
<text x="156" y="234" font-size="9" fill="#666" text-anchor="start" font-weight="400" font-style="normal">B-</text>
<text x="156" y="320" font-size="9" fill="#666" text-anchor="start" font-weight="400" font-style="normal">C+</text>
<text x="156" y="354" font-size="9" fill="#666" text-anchor="start" font-weight="400" font-style="normal">C-</text>
<text x="240" y="150" font-size="9" fill="#666" text-anchor="end" font-weight="400" font-style="normal">P+</text>
<text x="240" y="250" font-size="9" fill="#666" text-anchor="end" font-weight="400" font-style="normal">P-</text>
<line x1="246" y1="146" x2="300" y2="146" stroke="#c2410c" stroke-width="3"/>
<line x1="246" y1="250" x2="270" y2="250" stroke="#444" stroke-width="2"/>
<circle cx="300" cy="146" r="3" fill="#c2410c"/>
<text x="305" y="140" font-size="10" fill="#c2410c" text-anchor="start" font-weight="600" font-style="normal">+7V4 raw</text>
<line x1="300" y1="146" x2="278" y2="146" stroke="#c2410c" stroke-width="2"/>
<line x1="278" y1="146" x2="278" y2="224" stroke="#c2410c" stroke-width="2"/>
<line x1="278" y1="224" x2="300" y2="224" stroke="#c2410c" stroke-width="2"/>
<rect x="330" y="139" width="44" height="14" rx="7" fill="#fff5f0" stroke="#c2410c"/>
<line x1="334" y1="146" x2="370" y2="146" stroke="#c2410c" stroke-width="1.5"/>
<text x="352" y="134" font-size="9" fill="#c2410c" text-anchor="middle" font-weight="600" font-style="normal">F1 5A</text>
<line x1="300" y1="146" x2="330" y2="146" stroke="#c2410c" stroke-width="3"/>
<line x1="374" y1="146" x2="980" y2="146" stroke="#c2410c" stroke-width="3"/>
<text x="560" y="140" font-size="10" fill="#c2410c" text-anchor="start" font-weight="600" font-style="normal">+7V4 FUSED   -> relay COM x4</text>
<line x1="282" y1="178" x2="980" y2="178" stroke="#0f6e56" stroke-width="2.5"/>
<text x="700" y="172" font-size="10" fill="#0f6e56" text-anchor="start" font-weight="600" font-style="normal">+5V logic bus</text>
<rect x="300" y="210" width="120" height="86" rx="4" fill="#fafafa" stroke="#999"/>
<text x="360" y="230" font-size="11" fill="#1a1a1a" text-anchor="middle" font-weight="600" font-style="normal">U1 MT3608</text>
<text x="360" y="244" font-size="9" fill="#666" text-anchor="middle" font-weight="400" font-style="normal">boost 7.4->5.0V</text>
<text x="360" y="262" font-size="9" fill="#b45309" text-anchor="middle" font-weight="600" font-style="normal">TRIM TO</text>
<text x="360" y="274" font-size="9" fill="#b45309" text-anchor="middle" font-weight="600" font-style="normal">5.00V FIRST</text>
<text x="306" y="224" font-size="8" fill="#666" text-anchor="start" font-weight="400" font-style="normal">IN+</text>
<text x="306" y="290" font-size="8" fill="#666" text-anchor="start" font-weight="400" font-style="normal">IN-</text>
<text x="414" y="224" font-size="8" fill="#666" text-anchor="end" font-weight="400" font-style="normal">OUT+</text>
<text x="414" y="290" font-size="8" fill="#666" text-anchor="end" font-weight="400" font-style="normal">OUT-</text>
<circle cx="420" cy="224" r="3" fill="#0f6e56"/>
<line x1="420" y1="224" x2="420" y2="178" stroke="#0f6e56" stroke-width="2"/>
<circle cx="420" cy="178" r="3" fill="#0f6e56"/>
<line x1="420" y1="290" x2="440" y2="290" stroke="#444" stroke-width="2"/>
<line x1="440" y1="290" x2="440" y2="660" stroke="#444" stroke-width="2"/>
<rect x="300" y="360" width="170" height="170" rx="4" fill="#fafafa" stroke="#999"/>
<text x="385.0" y="380" font-size="11" fill="#1a1a1a" text-anchor="middle" font-weight="600" font-style="normal">U2  ESP32-S3 Super Mini</text>
<text x="385.0" y="394" font-size="9" fill="#666" text-anchor="middle" font-weight="400" font-style="normal">BLE 5.0 . socketed</text>
<path d="M 371.0 404 l 7 8 l 7 -8" fill="none" stroke="#534ab7" stroke-width="1.4"/>
<line x1="300" y1="430" x2="282" y2="430" stroke="#999" stroke-width="1.4"/>
<text x="306" y="433" font-size="9" fill="#444" text-anchor="start" font-weight="400" font-style="normal">5V</text>
<line x1="300" y1="510" x2="282" y2="510" stroke="#999" stroke-width="1.4"/>
<text x="306" y="513" font-size="9" fill="#444" text-anchor="start" font-weight="400" font-style="normal">GND</text>
<line x1="470" y1="420" x2="488" y2="420" stroke="#999" stroke-width="1.4"/>
<text x="464" y="423" font-size="9" fill="#444" text-anchor="end" font-weight="400" font-style="normal">GPIO4</text>
<line x1="470" y1="442" x2="488" y2="442" stroke="#999" stroke-width="1.4"/>
<text x="464" y="445" font-size="9" fill="#444" text-anchor="end" font-weight="400" font-style="normal">GPIO5</text>
<line x1="470" y1="464" x2="488" y2="464" stroke="#999" stroke-width="1.4"/>
<text x="464" y="467" font-size="9" fill="#444" text-anchor="end" font-weight="400" font-style="normal">GPIO6</text>
<line x1="470" y1="486" x2="488" y2="486" stroke="#999" stroke-width="1.4"/>
<text x="464" y="489" font-size="9" fill="#444" text-anchor="end" font-weight="400" font-style="normal">GPIO7</text>
<line x1="470" y1="508" x2="488" y2="508" stroke="#999" stroke-width="1.4"/>
<text x="464" y="511" font-size="9" fill="#444" text-anchor="end" font-weight="400" font-style="normal">GPIO2</text>
<circle cx="282" cy="178" r="3" fill="#0f6e56"/>
<line x1="282" y1="178" x2="282" y2="430" stroke="#0f6e56" stroke-width="2"/>
<line x1="282" y1="510" x2="260" y2="510" stroke="#444" stroke-width="2"/>
<line x1="260" y1="510" x2="260" y2="660" stroke="#444" stroke-width="2"/>
<line x1="270" y1="250" x2="270" y2="660" stroke="#444" stroke-width="2"/>
<circle cx="270" cy="250" r="3" fill="#444"/>
<circle cx="282" cy="400" r="3" fill="#0f6e56"/>
<line x1="282" y1="400" x2="250" y2="400" stroke="#0f6e56" stroke-width="2"/>
<line x1="241" y1="412" x2="259" y2="412" stroke="#333" stroke-width="2.2"/>
<path d="M 241 419 Q 250 425 259 419" fill="none" stroke="#333" stroke-width="2.2"/>
<text x="262" y="410" font-size="11" fill="#333">+</text>
<line x1="250" y1="419" x2="250" y2="438" stroke="#444" stroke-width="2"/>
<line x1="250" y1="438" x2="250" y2="444" stroke="#444" stroke-width="2"/>
<line x1="242" y1="444" x2="258" y2="444" stroke="#444" stroke-width="2"/>
<line x1="245" y1="448" x2="255" y2="448" stroke="#444" stroke-width="1.6"/>
<line x1="248" y1="451" x2="252" y2="451" stroke="#444" stroke-width="1.6"/>
<text x="214" y="408" font-size="9" fill="#333" text-anchor="start" font-weight="400" font-style="normal">C1</text>
<text x="206" y="420" font-size="8" fill="#777" text-anchor="start" font-weight="400" font-style="normal">100uF</text>
<line x1="488" y1="508" x2="520" y2="508" stroke="#534ab7" stroke-width="1.8"/>
<text x="486" y="502" font-size="9" fill="#333" text-anchor="start" font-weight="400" font-style="normal">D1</text>
<path d="M 520.0 508.0 L 522.5 503.0 L 527.5 513.0 L 532.5 503.0 L 537.5 513.0 L 542.5 503.0 L 547.5 513.0 L 550.0 508.0" fill="none" stroke="#333" stroke-width="1.6"/>
<text x="528" y="499" font-size="8" fill="#777" text-anchor="start" font-weight="400" font-style="normal">R1 330</text>
<line x1="550" y1="508" x2="566" y2="508" stroke="#333" stroke-width="1.8"/>
<polygon points="566,502 566,514 578,508" fill="#3B6D11"/>
<line x1="578" y1="502" x2="578" y2="514" stroke="#3B6D11" stroke-width="2"/>
<line x1="576" y1="499" x2="582" y2="495" stroke="#3B6D11" stroke-width="1.1"/>
<line x1="581" y1="501" x2="587" y2="497" stroke="#3B6D11" stroke-width="1.1"/>
<line x1="578" y1="508" x2="596" y2="508" stroke="#333" stroke-width="1.8"/>
<line x1="596" y1="508" x2="596" y2="660" stroke="#444" stroke-width="2"/>
<rect x="660" y="360" width="300" height="210" rx="4" fill="#fafafa" stroke="#999"/>
<text x="810.0" y="378" font-size="11" fill="#1a1a1a" text-anchor="middle" font-weight="600" font-style="normal">K1  VNFOCKQSH 4-ch relay</text>
<text x="810.0" y="391" font-size="8" fill="#666" text-anchor="middle" font-weight="400" font-style="normal">opto-isolated . coils internal . JD-VCC removed</text>
<text x="668" y="415" font-size="8" fill="#666" text-anchor="start" font-weight="400" font-style="normal">VCC</text>
<text x="668" y="435" font-size="8" fill="#666" text-anchor="start" font-weight="400" font-style="normal">GND</text>
<text x="668" y="459" font-size="8" fill="#666" text-anchor="start" font-weight="400" font-style="normal">IN1</text>
<text x="668" y="479" font-size="8" fill="#666" text-anchor="start" font-weight="400" font-style="normal">IN2</text>
<text x="668" y="499" font-size="8" fill="#666" text-anchor="start" font-weight="400" font-style="normal">IN3</text>
<text x="668" y="519" font-size="8" fill="#666" text-anchor="start" font-weight="400" font-style="normal">IN4</text>
<circle cx="640" cy="178" r="3" fill="#0f6e56"/>
<line x1="640" y1="178" x2="640" y2="412" stroke="#0f6e56" stroke-width="2"/>
<line x1="640" y1="412" x2="660" y2="412" stroke="#0f6e56" stroke-width="2"/>
<line x1="660" y1="432" x2="648" y2="432" stroke="#444" stroke-width="2"/>
<line x1="648" y1="432" x2="648" y2="660" stroke="#444" stroke-width="2"/>
<line x1="660" y1="456" x2="634" y2="456" stroke="#534ab7" stroke-width="1.6"/>
<line x1="660" y1="476" x2="634" y2="476" stroke="#534ab7" stroke-width="1.6"/>
<line x1="660" y1="496" x2="634" y2="496" stroke="#534ab7" stroke-width="1.6"/>
<line x1="660" y1="516" x2="634" y2="516" stroke="#534ab7" stroke-width="1.6"/>
<text x="545" y="404" font-size="9" fill="#534ab7" text-anchor="start" font-weight="400" font-style="normal">6-wire ribbon</text>
<text x="545" y="393" font-size="8" fill="#534ab7" text-anchor="start" font-weight="400" font-style="normal">GND . 5V . IN1-4</text>
<line x1="488" y1="420" x2="556" y2="420" stroke="#534ab7" stroke-width="1.6" stroke-dasharray="4 2"/>
<line x1="556" y1="420" x2="556" y2="456" stroke="#534ab7" stroke-width="1.6" stroke-dasharray="4 2"/>
<line x1="556" y1="456" x2="634" y2="456" stroke="#534ab7" stroke-width="1.6" stroke-dasharray="4 2"/>
<line x1="488" y1="442" x2="568" y2="442" stroke="#534ab7" stroke-width="1.6" stroke-dasharray="4 2"/>
<line x1="568" y1="442" x2="568" y2="476" stroke="#534ab7" stroke-width="1.6" stroke-dasharray="4 2"/>
<line x1="568" y1="476" x2="634" y2="476" stroke="#534ab7" stroke-width="1.6" stroke-dasharray="4 2"/>
<line x1="488" y1="464" x2="580" y2="464" stroke="#534ab7" stroke-width="1.6" stroke-dasharray="4 2"/>
<line x1="580" y1="464" x2="580" y2="496" stroke="#534ab7" stroke-width="1.6" stroke-dasharray="4 2"/>
<line x1="580" y1="496" x2="634" y2="496" stroke="#534ab7" stroke-width="1.6" stroke-dasharray="4 2"/>
<line x1="488" y1="486" x2="592" y2="486" stroke="#534ab7" stroke-width="1.6" stroke-dasharray="4 2"/>
<line x1="592" y1="486" x2="592" y2="516" stroke="#534ab7" stroke-width="1.6" stroke-dasharray="4 2"/>
<line x1="592" y1="516" x2="634" y2="516" stroke="#534ab7" stroke-width="1.6" stroke-dasharray="4 2"/>
<circle cx="556" cy="456" r="3" fill="#534ab7"/>
<line x1="556" y1="456" x2="556" y2="540" stroke="#534ab7" stroke-width="1.4"/>
<line x1="548" y1="540" x2="564" y2="540" stroke="#333" stroke-width="2.2"/>
<line x1="548" y1="545" x2="564" y2="545" stroke="#333" stroke-width="2.2"/>
<line x1="556" y1="545" x2="556" y2="562" stroke="#444" stroke-width="1.4"/>
<line x1="556" y1="562" x2="556" y2="568" stroke="#444" stroke-width="2"/>
<line x1="548" y1="568" x2="564" y2="568" stroke="#444" stroke-width="2"/>
<line x1="551" y1="572" x2="561" y2="572" stroke="#444" stroke-width="1.6"/>
<line x1="554" y1="575" x2="558" y2="575" stroke="#444" stroke-width="1.6"/>
<text x="516" y="538" font-size="8" fill="#333" text-anchor="start" font-weight="400" font-style="normal">C2</text>
<text x="496" y="556" font-size="8" fill="#777" text-anchor="start" font-weight="400" font-style="normal">0.1uF x4 (C2-C5)</text>
<circle cx="846" cy="434" r="2.5" fill="#333"/>
<line x1="846" y1="434" x2="910" y2="427" stroke="#333" stroke-width="1.6"/>
<circle cx="916" cy="434" r="2.5" fill="#333"/>
<text x="840" y="437" font-size="8" fill="#666" text-anchor="end" font-weight="400" font-style="normal">COM1</text>
<line x1="828" y1="434" x2="846" y2="434" stroke="#c2410c" stroke-width="1.8"/>
<line x1="916" y1="434" x2="952" y2="434" stroke="#993c1d" stroke-width="2"/>
<text x="956" y="437" font-size="8" fill="#993c1d" text-anchor="start" font-weight="600" font-style="normal">NO1</text>
<circle cx="846" cy="466" r="2.5" fill="#333"/>
<line x1="846" y1="466" x2="910" y2="459" stroke="#333" stroke-width="1.6"/>
<circle cx="916" cy="466" r="2.5" fill="#333"/>
<text x="840" y="469" font-size="8" fill="#666" text-anchor="end" font-weight="400" font-style="normal">COM2</text>
<line x1="828" y1="466" x2="846" y2="466" stroke="#c2410c" stroke-width="1.8"/>
<line x1="916" y1="466" x2="952" y2="466" stroke="#993c1d" stroke-width="2"/>
<text x="956" y="469" font-size="8" fill="#993c1d" text-anchor="start" font-weight="600" font-style="normal">NO2</text>
<circle cx="846" cy="498" r="2.5" fill="#333"/>
<line x1="846" y1="498" x2="910" y2="491" stroke="#333" stroke-width="1.6"/>
<circle cx="916" cy="498" r="2.5" fill="#333"/>
<text x="840" y="501" font-size="8" fill="#666" text-anchor="end" font-weight="400" font-style="normal">COM3</text>
<line x1="828" y1="498" x2="846" y2="498" stroke="#c2410c" stroke-width="1.8"/>
<line x1="916" y1="498" x2="952" y2="498" stroke="#993c1d" stroke-width="2"/>
<text x="956" y="501" font-size="8" fill="#993c1d" text-anchor="start" font-weight="600" font-style="normal">NO3</text>
<circle cx="846" cy="530" r="2.5" fill="#333"/>
<line x1="846" y1="530" x2="910" y2="523" stroke="#333" stroke-width="1.6"/>
<circle cx="916" cy="530" r="2.5" fill="#333"/>
<text x="840" y="533" font-size="8" fill="#666" text-anchor="end" font-weight="400" font-style="normal">COM4</text>
<line x1="828" y1="530" x2="846" y2="530" stroke="#c2410c" stroke-width="1.8"/>
<line x1="916" y1="530" x2="952" y2="530" stroke="#993c1d" stroke-width="2"/>
<text x="956" y="533" font-size="8" fill="#993c1d" text-anchor="start" font-weight="600" font-style="normal">NO4</text>
<line x1="828" y1="434" x2="828" y2="146" stroke="#c2410c" stroke-width="1.6"/>
<line x1="828" y1="434" x2="828" y2="434" stroke="#c2410c" stroke-width="1.6"/>
<line x1="828" y1="466" x2="828" y2="466" stroke="#c2410c" stroke-width="1.6"/>
<line x1="828" y1="498" x2="828" y2="498" stroke="#c2410c" stroke-width="1.6"/>
<line x1="828" y1="530" x2="828" y2="530" stroke="#c2410c" stroke-width="1.6"/>
<circle cx="828" cy="146" r="3" fill="#c2410c"/>
<text x="34" y="578" font-size="10" fill="#888" text-anchor="start" font-weight="600" font-style="normal">OUTPUT CHANNELS - x4 identical, TVS-clamped</text>
<line x1="20" y1="584" x2="1000" y2="584" stroke="#eee" stroke-width="1"/>
<text x="140" y="598" font-size="10" fill="#1a1a1a" text-anchor="middle" font-weight="600" font-style="normal">CH1   BT1 . D2</text>
<circle cx="116" cy="610" r="6" fill="#C1402A" stroke="#6e1f12" stroke-width="1.5"/>
<circle cx="116" cy="610" r="2" fill="#6e1f12"/>
<text x="116" y="632" font-size="8" fill="#666" text-anchor="middle" font-weight="400" font-style="normal">+ (red)</text>
<circle cx="164" cy="610" r="6" fill="#222" stroke="#000" stroke-width="1.5"/>
<circle cx="164" cy="610" r="2" fill="#000"/>
<text x="164" y="632" font-size="8" fill="#666" text-anchor="middle" font-weight="400" font-style="normal">- (blk)</text>
<line x1="116" y1="604" x2="116" y2="586" stroke="#993c1d" stroke-width="2"/>
<line x1="116" y1="586" x2="70" y2="586" stroke="#993c1d" stroke-width="2"/>
<text x="48" y="582" font-size="8" fill="#993c1d" text-anchor="start" font-weight="600" font-style="normal">NO1</text>
<line x1="50" y1="586" x2="70" y2="586" stroke="#993c1d" stroke-width="2"/>
<line x1="116" y1="616" x2="140" y2="616" stroke="#993c1d" stroke-width="1.6"/>
<line x1="140" y1="616" x2="140" y2="624" stroke="#993c1d" stroke-width="1.6"/>
<line x1="133" y1="624" x2="147" y2="624" stroke="#0f6e56" stroke-width="2"/>
<line x1="133" y1="624" x2="130" y2="620" stroke="#0f6e56" stroke-width="2"/>
<line x1="147" y1="624" x2="150" y2="628" stroke="#0f6e56" stroke-width="2"/>
<polygon points="134,636 146,636 140,625" fill="#0f6e56"/>
<line x1="140" y1="636" x2="140" y2="644" stroke="#0f6e56" stroke-width="1.6"/>
<text x="152" y="634" font-size="8" fill="#0f6e56" text-anchor="start" font-weight="400" font-style="normal">D2</text>
<line x1="140" y1="644" x2="164" y2="644" stroke="#444" stroke-width="1.6"/>
<line x1="164" y1="616" x2="164" y2="644" stroke="#444" stroke-width="1.6"/>
<line x1="140" y1="644" x2="140" y2="660" stroke="#444" stroke-width="1.6"/>
<line x1="140" y1="660" x2="140" y2="666" stroke="#444" stroke-width="2"/>
<line x1="132" y1="666" x2="148" y2="666" stroke="#444" stroke-width="2"/>
<line x1="135" y1="670" x2="145" y2="670" stroke="#444" stroke-width="1.6"/>
<line x1="138" y1="673" x2="142" y2="673" stroke="#444" stroke-width="1.6"/>
<text x="140" y="682" font-size="8" fill="#888" text-anchor="middle" font-weight="400" font-style="normal">-> igniter</text>
<text x="355" y="598" font-size="10" fill="#1a1a1a" text-anchor="middle" font-weight="600" font-style="normal">CH2   BT2 . D3</text>
<circle cx="331" cy="610" r="6" fill="#C1402A" stroke="#6e1f12" stroke-width="1.5"/>
<circle cx="331" cy="610" r="2" fill="#6e1f12"/>
<text x="331" y="632" font-size="8" fill="#666" text-anchor="middle" font-weight="400" font-style="normal">+ (red)</text>
<circle cx="379" cy="610" r="6" fill="#222" stroke="#000" stroke-width="1.5"/>
<circle cx="379" cy="610" r="2" fill="#000"/>
<text x="379" y="632" font-size="8" fill="#666" text-anchor="middle" font-weight="400" font-style="normal">- (blk)</text>
<line x1="331" y1="604" x2="331" y2="586" stroke="#993c1d" stroke-width="2"/>
<line x1="331" y1="586" x2="285" y2="586" stroke="#993c1d" stroke-width="2"/>
<text x="263" y="582" font-size="8" fill="#993c1d" text-anchor="start" font-weight="600" font-style="normal">NO2</text>
<line x1="265" y1="586" x2="285" y2="586" stroke="#993c1d" stroke-width="2"/>
<line x1="331" y1="616" x2="355" y2="616" stroke="#993c1d" stroke-width="1.6"/>
<line x1="355" y1="616" x2="355" y2="624" stroke="#993c1d" stroke-width="1.6"/>
<line x1="348" y1="624" x2="362" y2="624" stroke="#0f6e56" stroke-width="2"/>
<line x1="348" y1="624" x2="345" y2="620" stroke="#0f6e56" stroke-width="2"/>
<line x1="362" y1="624" x2="365" y2="628" stroke="#0f6e56" stroke-width="2"/>
<polygon points="349,636 361,636 355,625" fill="#0f6e56"/>
<line x1="355" y1="636" x2="355" y2="644" stroke="#0f6e56" stroke-width="1.6"/>
<text x="367" y="634" font-size="8" fill="#0f6e56" text-anchor="start" font-weight="400" font-style="normal">D3</text>
<line x1="355" y1="644" x2="379" y2="644" stroke="#444" stroke-width="1.6"/>
<line x1="379" y1="616" x2="379" y2="644" stroke="#444" stroke-width="1.6"/>
<line x1="355" y1="644" x2="355" y2="660" stroke="#444" stroke-width="1.6"/>
<line x1="355" y1="660" x2="355" y2="666" stroke="#444" stroke-width="2"/>
<line x1="347" y1="666" x2="363" y2="666" stroke="#444" stroke-width="2"/>
<line x1="350" y1="670" x2="360" y2="670" stroke="#444" stroke-width="1.6"/>
<line x1="353" y1="673" x2="357" y2="673" stroke="#444" stroke-width="1.6"/>
<text x="355" y="682" font-size="8" fill="#888" text-anchor="middle" font-weight="400" font-style="normal">-> igniter</text>
<text x="570" y="598" font-size="10" fill="#1a1a1a" text-anchor="middle" font-weight="600" font-style="normal">CH3   BT3 . D4</text>
<circle cx="546" cy="610" r="6" fill="#C1402A" stroke="#6e1f12" stroke-width="1.5"/>
<circle cx="546" cy="610" r="2" fill="#6e1f12"/>
<text x="546" y="632" font-size="8" fill="#666" text-anchor="middle" font-weight="400" font-style="normal">+ (red)</text>
<circle cx="594" cy="610" r="6" fill="#222" stroke="#000" stroke-width="1.5"/>
<circle cx="594" cy="610" r="2" fill="#000"/>
<text x="594" y="632" font-size="8" fill="#666" text-anchor="middle" font-weight="400" font-style="normal">- (blk)</text>
<line x1="546" y1="604" x2="546" y2="586" stroke="#993c1d" stroke-width="2"/>
<line x1="546" y1="586" x2="500" y2="586" stroke="#993c1d" stroke-width="2"/>
<text x="478" y="582" font-size="8" fill="#993c1d" text-anchor="start" font-weight="600" font-style="normal">NO3</text>
<line x1="480" y1="586" x2="500" y2="586" stroke="#993c1d" stroke-width="2"/>
<line x1="546" y1="616" x2="570" y2="616" stroke="#993c1d" stroke-width="1.6"/>
<line x1="570" y1="616" x2="570" y2="624" stroke="#993c1d" stroke-width="1.6"/>
<line x1="563" y1="624" x2="577" y2="624" stroke="#0f6e56" stroke-width="2"/>
<line x1="563" y1="624" x2="560" y2="620" stroke="#0f6e56" stroke-width="2"/>
<line x1="577" y1="624" x2="580" y2="628" stroke="#0f6e56" stroke-width="2"/>
<polygon points="564,636 576,636 570,625" fill="#0f6e56"/>
<line x1="570" y1="636" x2="570" y2="644" stroke="#0f6e56" stroke-width="1.6"/>
<text x="582" y="634" font-size="8" fill="#0f6e56" text-anchor="start" font-weight="400" font-style="normal">D4</text>
<line x1="570" y1="644" x2="594" y2="644" stroke="#444" stroke-width="1.6"/>
<line x1="594" y1="616" x2="594" y2="644" stroke="#444" stroke-width="1.6"/>
<line x1="570" y1="644" x2="570" y2="660" stroke="#444" stroke-width="1.6"/>
<line x1="570" y1="660" x2="570" y2="666" stroke="#444" stroke-width="2"/>
<line x1="562" y1="666" x2="578" y2="666" stroke="#444" stroke-width="2"/>
<line x1="565" y1="670" x2="575" y2="670" stroke="#444" stroke-width="1.6"/>
<line x1="568" y1="673" x2="572" y2="673" stroke="#444" stroke-width="1.6"/>
<text x="570" y="682" font-size="8" fill="#888" text-anchor="middle" font-weight="400" font-style="normal">-> igniter</text>
<text x="785" y="598" font-size="10" fill="#1a1a1a" text-anchor="middle" font-weight="600" font-style="normal">CH4   BT4 . D5</text>
<circle cx="761" cy="610" r="6" fill="#C1402A" stroke="#6e1f12" stroke-width="1.5"/>
<circle cx="761" cy="610" r="2" fill="#6e1f12"/>
<text x="761" y="632" font-size="8" fill="#666" text-anchor="middle" font-weight="400" font-style="normal">+ (red)</text>
<circle cx="809" cy="610" r="6" fill="#222" stroke="#000" stroke-width="1.5"/>
<circle cx="809" cy="610" r="2" fill="#000"/>
<text x="809" y="632" font-size="8" fill="#666" text-anchor="middle" font-weight="400" font-style="normal">- (blk)</text>
<line x1="761" y1="604" x2="761" y2="586" stroke="#993c1d" stroke-width="2"/>
<line x1="761" y1="586" x2="715" y2="586" stroke="#993c1d" stroke-width="2"/>
<text x="693" y="582" font-size="8" fill="#993c1d" text-anchor="start" font-weight="600" font-style="normal">NO4</text>
<line x1="695" y1="586" x2="715" y2="586" stroke="#993c1d" stroke-width="2"/>
<line x1="761" y1="616" x2="785" y2="616" stroke="#993c1d" stroke-width="1.6"/>
<line x1="785" y1="616" x2="785" y2="624" stroke="#993c1d" stroke-width="1.6"/>
<line x1="778" y1="624" x2="792" y2="624" stroke="#0f6e56" stroke-width="2"/>
<line x1="778" y1="624" x2="775" y2="620" stroke="#0f6e56" stroke-width="2"/>
<line x1="792" y1="624" x2="795" y2="628" stroke="#0f6e56" stroke-width="2"/>
<polygon points="779,636 791,636 785,625" fill="#0f6e56"/>
<line x1="785" y1="636" x2="785" y2="644" stroke="#0f6e56" stroke-width="1.6"/>
<text x="797" y="634" font-size="8" fill="#0f6e56" text-anchor="start" font-weight="400" font-style="normal">D5</text>
<line x1="785" y1="644" x2="809" y2="644" stroke="#444" stroke-width="1.6"/>
<line x1="809" y1="616" x2="809" y2="644" stroke="#444" stroke-width="1.6"/>
<line x1="785" y1="644" x2="785" y2="660" stroke="#444" stroke-width="1.6"/>
<line x1="785" y1="660" x2="785" y2="666" stroke="#444" stroke-width="2"/>
<line x1="777" y1="666" x2="793" y2="666" stroke="#444" stroke-width="2"/>
<line x1="780" y1="670" x2="790" y2="670" stroke="#444" stroke-width="1.6"/>
<line x1="783" y1="673" x2="787" y2="673" stroke="#444" stroke-width="1.6"/>
<text x="785" y="682" font-size="8" fill="#888" text-anchor="middle" font-weight="400" font-style="normal">-> igniter</text>
<line x1="60" y1="660" x2="980" y2="660" stroke="#444" stroke-width="2.5"/>
<text x="64" y="654" font-size="10" fill="#444" text-anchor="start" font-weight="600" font-style="normal">GND (common)</text>
<circle cx="250" cy="660" r="3" fill="#444"/>
<circle cx="260" cy="660" r="3" fill="#444"/>
<circle cx="270" cy="660" r="3" fill="#444"/>
<circle cx="440" cy="660" r="3" fill="#444"/>
<circle cx="556" cy="660" r="3" fill="#444"/>
<circle cx="596" cy="660" r="3" fill="#444"/>
<circle cx="648" cy="660" r="3" fill="#444"/>
<rect x="720" y="690" width="282" height="58" fill="#fcfcfc" stroke="#ccc"/>
<text x="728" y="706" font-size="9" fill="#333" text-anchor="start" font-weight="600" font-style="normal">Remote Ignitor Controller - 4ch BLE</text>
<text x="728" y="720" font-size="8" fill="#666" text-anchor="start" font-weight="400" font-style="normal">Sheet 1/1 . Rev 3 (2S single-battery)</text>
<text x="728" y="733" font-size="8" fill="#666" text-anchor="start" font-weight="400" font-style="normal">Firing 7.4V . Logic 5.0V . Estes 0.5-1A</text>
<text x="728" y="744" font-size="8" fill="#666" text-anchor="start" font-weight="400" font-style="normal">GPIO4-7->IN1-4 . GPIO2->LED . active-LOW</text>
<rect x="18" y="690" width="690" height="58" fill="#fcfcfc" stroke="#ddd"/>
<text x="26" y="706" font-size="9" fill="#555" text-anchor="start" font-weight="600" font-style="normal">Notes:</text>
<text x="26" y="720" font-size="8" fill="#666" text-anchor="start" font-weight="400" font-style="normal">1. Pre-set MT3608 to 5.00V before connecting ESP32/relay.   2. F1 fuses only the firing path (relay COM); the boost taps raw +7V4.</text>
<text x="26" y="732" font-size="8" fill="#666" text-anchor="start" font-weight="400" font-style="normal">3. TVS D2-D5 cathode (stripe) faces the + binding post on every channel.   4. Relay H/L jumper set to match firmware (active-LOW).</text>
<text x="26" y="744" font-size="8" fill="#666" text-anchor="start" font-weight="400" font-style="normal">5. C1 100uF bulk on +5V at ESP32; C2-C5 0.1uF on relay IN1-IN4.   6. GND common; 18AWG firing, 22AWG logic.   NO1-4 joined by net name.</text>
</svg>